G04 ================== begin FILE IDENTIFICATION RECORD ==================*
G04 Layout Name:  C:/USERS/USER/DESKTOP/DA CONVERTOR/allegro/OSCILLATOR.brd*
G04 Film Name:    Design*
G04 File Format:  Gerber RS274X*
G04 File Origin:  Cadence Allegro 17.2-P019*
G04 Origin Date:  Thu Aug 01 11:09:31 2019*
G04 *
G04 Layer:  VIA CLASS/BOTTOM*
G04 Layer:  VIA CLASS/TOP*
G04 Layer:  ROUTE KEEPOUT/ALL*
G04 Layer:  ROUTE KEEPIN/ALL*
G04 Layer:  REF DES/SILKSCREEN_TOP*
G04 Layer:  REF DES/SILKSCREEN_BOTTOM*
G04 Layer:  PIN/BOTTOM*
G04 Layer:  PIN/TOP*
G04 Layer:  PACKAGE KEEPIN/ALL*
G04 Layer:  PACKAGE GEOMETRY/PIN_NUMBER*
G04 Layer:  PACKAGE GEOMETRY/SILKSCREEN_TOP*
G04 Layer:  PACKAGE GEOMETRY/SILKSCREEN_BOTTOM*
G04 Layer:  PACKAGE GEOMETRY/SOLDERMASK_TOP*
G04 Layer:  PACKAGE GEOMETRY/SOLDERMASK_BOTTOM*
G04 Layer:  PACKAGE GEOMETRY/PASTEMASK_TOP*
G04 Layer:  PACKAGE GEOMETRY/PASTEMASK_BOTTOM*
G04 Layer:  MANUFACTURING/NCLEGEND-1-2*
G04 Layer:  ETCH/BOTTOM*
G04 Layer:  ETCH/TOP*
G04 Layer:  BOARD GEOMETRY/OUTLINE*
G04 Layer:  BOARD GEOMETRY/SILKSCREEN_TOP*
G04 Layer:  BOARD GEOMETRY/SILKSCREEN_BOTTOM*
G04 Layer:  BOARD GEOMETRY/SOLDERMASK_TOP*
G04 Layer:  BOARD GEOMETRY/SOLDERMASK_BOTTOM*
G04 Layer:  BOARD GEOMETRY/DESIGN_OUTLINE*
G04 *
G04 Offset:    (0.000 0.000)*
G04 Mirror:    No*
G04 Mode:      Positive*
G04 Rotation:  0*
G04 FullContactRelief:  No*
G04 UndefLineWidth:     0.000*
G04 ================== end FILE IDENTIFICATION RECORD ====================*
%FSLAX25Y25*MOMM*%
%IR0*IPPOS*OFA0.00000B0.00000*MIA0B0*SFA1.00000B1.00000*%
%ADD12C,1.524*%
%ADD14C,1.651*%
%ADD19C,1.905*%
%ADD16R,1.524X1.524*%
%ADD17R,1.905X1.905*%
%AMMACRO18*
1,1,0.0,.686,0.0*
20,1,0.0,.686,0.0,.675578,-.119123,0.0*
1,1,0.0,.675578,-.119123*
20,1,0.0,.675578,-.119123,.644629,-.234626,0.0*
1,1,0.0,.644629,-.234626*
20,1,0.0,.644629,-.234626,.594093,-.343,0.0*
1,1,0.0,.594093,-.343*
20,1,0.0,.594093,-.343,.525506,-.440952,0.0*
1,1,0.0,.525506,-.440952*
20,1,0.0,.525506,-.440952,.440952,-.525506,0.0*
1,1,0.0,.440952,-.525506*
20,1,0.0,.440952,-.525506,.343,-.594093,0.0*
1,1,0.0,.343,-.594093*
20,1,0.0,.343,-.594093,.234626,-.644629,0.0*
1,1,0.0,.234626,-.644629*
20,1,0.0,.234626,-.644629,.119123,-.675578,0.0*
1,1,0.0,.119123,-.675578*
20,1,0.0,.119123,-.675578,0.0,-.686,0.0*
1,1,0.0,0.0,-.686*
20,1,0.0,0.0,-.686,-.119123,-.675578,0.0*
1,1,0.0,-.119123,-.675578*
20,1,0.0,-.119123,-.675578,-.234626,-.644629,0.0*
1,1,0.0,-.234626,-.644629*
20,1,0.0,-.234626,-.644629,-.343,-.594093,0.0*
1,1,0.0,-.343,-.594093*
20,1,0.0,-.343,-.594093,-.440952,-.525506,0.0*
1,1,0.0,-.440952,-.525506*
20,1,0.0,-.440952,-.525506,-.525506,-.440952,0.0*
1,1,0.0,-.525506,-.440952*
20,1,0.0,-.525506,-.440952,-.594093,-.343,0.0*
1,1,0.0,-.594093,-.343*
20,1,0.0,-.594093,-.343,-.644629,-.234626,0.0*
1,1,0.0,-.644629,-.234626*
20,1,0.0,-.644629,-.234626,-.675578,-.119123,0.0*
1,1,0.0,-.675578,-.119123*
20,1,0.0,-.675578,-.119123,-.686,0.0,0.0*
1,1,0.0,-.686,0.0*
20,1,0.0,-.686,0.0,-.675578,.119123,0.0*
1,1,0.0,-.675578,.119123*
20,1,0.0,-.675578,.119123,-.644629,.234626,0.0*
1,1,0.0,-.644629,.234626*
20,1,0.0,-.644629,.234626,-.594093,.343,0.0*
1,1,0.0,-.594093,.343*
20,1,0.0,-.594093,.343,-.525506,.440952,0.0*
1,1,0.0,-.525506,.440952*
20,1,0.0,-.525506,.440952,-.440952,.525506,0.0*
1,1,0.0,-.440952,.525506*
20,1,0.0,-.440952,.525506,-.343,.594093,0.0*
1,1,0.0,-.343,.594093*
20,1,0.0,-.343,.594093,-.234626,.644629,0.0*
1,1,0.0,-.234626,.644629*
20,1,0.0,-.234626,.644629,-.119123,.675578,0.0*
1,1,0.0,-.119123,.675578*
20,1,0.0,-.119123,.675578,0.0,.686,0.0*
1,1,0.0,0.0,.686*
20,1,0.0,0.0,.686,.119123,.675578,0.0*
1,1,0.0,.119123,.675578*
20,1,0.0,.119123,.675578,.234626,.644629,0.0*
1,1,0.0,.234626,.644629*
20,1,0.0,.234626,.644629,.343,.594093,0.0*
1,1,0.0,.343,.594093*
20,1,0.0,.343,.594093,.440952,.525506,0.0*
1,1,0.0,.440952,.525506*
20,1,0.0,.440952,.525506,.525506,.440952,0.0*
1,1,0.0,.525506,.440952*
20,1,0.0,.525506,.440952,.594093,.343,0.0*
1,1,0.0,.594093,.343*
20,1,0.0,.594093,.343,.644629,.234626,0.0*
1,1,0.0,.644629,.234626*
20,1,0.0,.644629,.234626,.675578,.119123,0.0*
1,1,0.0,.675578,.119123*
20,1,0.0,.675578,.119123,.686,0.0,0.0*
1,1,0.0,.686,0.0*
1,1,0.0,-.286,-.343*
20,1,0.0,-.286,-.343,0.0,.343,0.0*
1,1,0.0,0.0,.343*
20,1,0.0,0.0,.343,.286,-.343,0.0*
1,1,0.0,.286,-.343*
1,1,0.0,.183,-.103*
20,1,0.0,.183,-.103,-.183,-.103,0.0*
1,1,0.0,-.183,-.103*
%
%ADD18MACRO18*%
%AMMACRO15*
1,1,0.0,-.508,.3175*
20,1,0.0,-.508,.3175,-.500282,.405713,0.0*
1,1,0.0,-.500282,.405713*
20,1,0.0,-.500282,.405713,-.477364,.491246,0.0*
1,1,0.0,-.477364,.491246*
20,1,0.0,-.477364,.491246,-.439941,.5715,0.0*
1,1,0.0,-.439941,.5715*
20,1,0.0,-.439941,.5715,-.389151,.644036,0.0*
1,1,0.0,-.389151,.644036*
20,1,0.0,-.389151,.644036,-.326536,.706651,0.0*
1,1,0.0,-.326536,.706651*
20,1,0.0,-.326536,.706651,-.254,.757441,0.0*
1,1,0.0,-.254,.757441*
20,1,0.0,-.254,.757441,-.173746,.794864,0.0*
1,1,0.0,-.173746,.794864*
20,1,0.0,-.173746,.794864,-.088213,.817782,0.0*
1,1,0.0,-.088213,.817782*
20,1,0.0,-.088213,.817782,0.0,.8255,0.0*
1,1,0.0,0.0,.8255*
20,1,0.0,0.0,.8255,.088213,.817782,0.0*
1,1,0.0,.088213,.817782*
20,1,0.0,.088213,.817782,.173746,.794864,0.0*
1,1,0.0,.173746,.794864*
20,1,0.0,.173746,.794864,.254,.757441,0.0*
1,1,0.0,.254,.757441*
20,1,0.0,.254,.757441,.326536,.706651,0.0*
1,1,0.0,.326536,.706651*
20,1,0.0,.326536,.706651,.389151,.644036,0.0*
1,1,0.0,.389151,.644036*
20,1,0.0,.389151,.644036,.439941,.5715,0.0*
1,1,0.0,.439941,.5715*
20,1,0.0,.439941,.5715,.477364,.491246,0.0*
1,1,0.0,.477364,.491246*
20,1,0.0,.477364,.491246,.500282,.405713,0.0*
1,1,0.0,.500282,.405713*
20,1,0.0,.500282,.405713,.508,.3175,0.0*
1,1,0.0,.508,.3175*
20,1,0.0,.508,.3175,.508,-.3175,0.0*
1,1,0.0,.508,-.3175*
20,1,0.0,.508,-.3175,.500282,-.405713,0.0*
1,1,0.0,.500282,-.405713*
20,1,0.0,.500282,-.405713,.477364,-.491246,0.0*
1,1,0.0,.477364,-.491246*
20,1,0.0,.477364,-.491246,.439941,-.5715,0.0*
1,1,0.0,.439941,-.5715*
20,1,0.0,.439941,-.5715,.389151,-.644036,0.0*
1,1,0.0,.389151,-.644036*
20,1,0.0,.389151,-.644036,.326536,-.706651,0.0*
1,1,0.0,.326536,-.706651*
20,1,0.0,.326536,-.706651,.254,-.757441,0.0*
1,1,0.0,.254,-.757441*
20,1,0.0,.254,-.757441,.173746,-.794864,0.0*
1,1,0.0,.173746,-.794864*
20,1,0.0,.173746,-.794864,.088213,-.817782,0.0*
1,1,0.0,.088213,-.817782*
20,1,0.0,.088213,-.817782,0.0,-.8255,0.0*
1,1,0.0,0.0,-.8255*
20,1,0.0,0.0,-.8255,-.088213,-.817782,0.0*
1,1,0.0,-.088213,-.817782*
20,1,0.0,-.088213,-.817782,-.173746,-.794864,0.0*
1,1,0.0,-.173746,-.794864*
20,1,0.0,-.173746,-.794864,-.254,-.757441,0.0*
1,1,0.0,-.254,-.757441*
20,1,0.0,-.254,-.757441,-.326536,-.706651,0.0*
1,1,0.0,-.326536,-.706651*
20,1,0.0,-.326536,-.706651,-.389151,-.644036,0.0*
1,1,0.0,-.389151,-.644036*
20,1,0.0,-.389151,-.644036,-.439941,-.5715,0.0*
1,1,0.0,-.439941,-.5715*
20,1,0.0,-.439941,-.5715,-.477364,-.491246,0.0*
1,1,0.0,-.477364,-.491246*
20,1,0.0,-.477364,-.491246,-.500282,-.405713,0.0*
1,1,0.0,-.500282,-.405713*
20,1,0.0,-.500282,-.405713,-.508,-.3175,0.0*
1,1,0.0,-.508,-.3175*
20,1,0.0,-.508,-.3175,-.508,.3175,0.0*
1,1,0.0,-.508,.3175*
%
%ADD15MACRO15*%
%AMMACRO13*
1,1,0.0,.635,0.0*
20,1,0.0,.635,0.0,.3175,.549926,0.0*
1,1,0.0,.3175,.549926*
20,1,0.0,.3175,.549926,-.3175,.549926,0.0*
1,1,0.0,-.3175,.549926*
20,1,0.0,-.3175,.549926,-.635,0.0,0.0*
1,1,0.0,-.635,0.0*
20,1,0.0,-.635,0.0,-.3175,-.549926,0.0*
1,1,0.0,-.3175,-.549926*
20,1,0.0,-.3175,-.549926,.3175,-.549926,0.0*
1,1,0.0,.3175,-.549926*
20,1,0.0,.3175,-.549926,.635,0.0,0.0*
1,1,0.0,.635,0.0*
%
%ADD13MACRO13*%
%ADD10C,.635*%
%AMMACRO11*
1,1,0.0,-.666,-.952*
20,1,0.0,-.666,-.952,.667,.953,0.0*
1,1,0.0,.667,.953*
1,1,0.0,-.666,.953*
20,1,0.0,-.666,.953,.667,-.952,0.0*
1,1,0.0,.667,-.952*
%
%ADD11MACRO11*%
%ADD20C,1.*%
%ADD21C,.203*%
%ADD22C,.5*%
%ADD28C,2.402*%
%ADD25C,2.274*%
%ADD26C,2.528*%
%ADD23C,2.656*%
%ADD27R,1.504X2.004*%
%ADD24R,1.504X1.504*%
G75*
%LPD*%
G75*
G36*
G01X754200Y500000D02*
Y754200D01*
X500000D01*
Y1528000D01*
Y3365600D01*
G03Y3618400I0J126400D01*
G01Y3632300D01*
G03Y3859700I0J113700D01*
G01Y3873600D01*
G03X625000Y3981300I0J126389D01*
G01X625100Y3982000D01*
G03X500000Y4126400I-125100J18010D01*
G01Y6245800D01*
X754200D01*
Y6500000D01*
X9245800D01*
Y6245800D01*
X9500000D01*
Y3867700D01*
G03Y3640300I0J-113700D01*
G01Y3626400D01*
G03X9374600Y3483800I0J-126437D01*
G01X9375000Y3481300D01*
G03X9500000Y3373600I125000J18689D01*
G01Y754200D01*
X9245800D01*
Y500000D01*
X754200D01*
G37*
%LPC*%
G75*
G36*
G01X3025000Y5698300D02*
G02X3134300Y5589000I131000J21700D01*
G01X3132900Y5589200D01*
G02X3025200Y5696900I23100J130800D01*
G01X3025000Y5698300D01*
G37*
G36*
G01X5679100Y5783700D02*
G02X5473400Y5615600I-103122J-83718D01*
G03X5472900Y5616300I-8534J-5567D01*
G02X5679100Y5783700I103100J83699D01*
G37*
G36*
G01X4801800Y5449300D02*
X4704400D01*
X4651400Y5502300D01*
X4584200Y5569400D01*
X4581700Y5569000D01*
G02X4574200Y5832000I-21729J130987D01*
G02X4691000Y5678300I-14204J-132024D01*
G01X4690600Y5675800D01*
X4766600Y5599700D01*
X4801800Y5564500D01*
Y5449300D01*
G37*
G36*
G01X8296800Y5592000D02*
G02X8187500Y5482700I21700J-131000D01*
G01X8187700Y5484100D01*
G02X8295400Y5591800I130800J-23100D01*
G01X8296800Y5592000D01*
G37*
G36*
G01X7753100Y5361600D02*
G02X7583500Y5507500I-123122J28403D01*
G03Y5526500I-3796J9500D01*
G02X7676500I46500J117500D01*
G03Y5507500I3796J-9500D01*
G02X7753100Y5361600I-46561J-117503D01*
G37*
G36*
G01X8975200Y4314000D02*
G02X9084500Y4423300I-21700J131000D01*
G01X9084300Y4421900D01*
G02X8976600Y4314200I-130800J23100D01*
G01X8975200Y4314000D01*
G37*
G36*
G01X8319100Y4312200D02*
G03X8318300I-400J-10197D01*
G02X8424500Y4525000I200J132800D01*
G01X8424700Y4524700D01*
X8425000Y4524400D01*
G02X8319100Y4312200I-106500J-79376D01*
G37*
G36*
G01X2411300Y4334400D02*
G02X2269600Y4192700I-125300J-16400D01*
G01X2268500Y4192800D01*
G02X2247900Y4197500I17715J125138D01*
G03X2247600Y4197600I-3376J-9629D01*
G02X2239500Y4435500I38434J120396D01*
G03Y4454500I-3796J9500D01*
G02X2194500Y4484800I46446J117544D01*
G01X2084200D01*
Y4635200D01*
X2128900D01*
X2140900Y4647200D01*
X2184400D01*
G02X2239500Y4689500I101551J-75244D01*
G03Y4708500I-3796J9500D01*
G02X2221400Y4934600I46528J117499D01*
G03X2216200Y4953600I-5194J8790D01*
G01X2209800D01*
G02X2159600Y5003800I0J50200D01*
G01Y5156200D01*
G02X2209800Y5206400I50200J0D01*
G01X2362200D01*
G02X2412400Y5156200I0J-50200D01*
G01Y5003800D01*
G02X2362200Y4953600I-50200J0D01*
G01X2355800D01*
G03X2350600Y4934600I-6J-10210D01*
G02X2332500Y4708500I-64628J-108601D01*
G03Y4689500I3796J-9500D01*
G02Y4454500I-46500J-117500D01*
G03Y4435500I3796J-9500D01*
G02X2411300Y4334600I-46483J-117523D01*
G01Y4334400D01*
G37*
G36*
G01X5408500Y4385500D02*
G02X5315500I-46500J-117500D01*
G03Y4404500I-3796J9500D01*
G02Y4639500I46500J117500D01*
G03Y4658500I-3796J9500D01*
G02X5236900Y4758000I46493J117522D01*
G01X5236700Y4759600D01*
X5131800Y4864500D01*
Y5147900D01*
X5222600Y5057100D01*
G03X5239700Y5061800I7209J7229D01*
G02X5483800Y5063600I122291J-31813D01*
G02X5408500Y4912500I-121836J-33596D01*
G03Y4893500I3796J-9500D01*
G02Y4658500I-46500J-117500D01*
G03Y4639500I3796J-9500D01*
G02Y4404500I-46500J-117500D01*
G03Y4385500I3796J-9500D01*
G37*
G36*
G01X4456700Y4066200D02*
X4306300D01*
Y4588600D01*
X4475000Y4757300D01*
X4474600Y4759800D01*
G02X4535400Y4884600I125367J16134D01*
G03X4530200Y4903600I-5194J8790D01*
G01X4523800D01*
G02X4473600Y4953800I0J50200D01*
G01Y5106200D01*
G02X4523800Y5156400I50200J0D01*
G01X4651400D01*
Y5307200D01*
X4801800D01*
Y5106800D01*
X4726400D01*
Y4953800D01*
G02X4676200Y4903600I-50200J0D01*
G01X4669800D01*
G03X4664600Y4884600I-6J-10210D01*
G02X4646500Y4658500I-64628J-108601D01*
G03Y4639500I3796J-9500D01*
G02Y4404500I-46500J-117500D01*
G03Y4385500I3796J-9500D01*
G02X4618000Y4142900I-46530J-117508D01*
G01X4616400Y4142700D01*
X4616300Y4142600D01*
G02X4553500Y4385500I-16318J125349D01*
G03Y4404500I-3796J9500D01*
G02X4473900Y4530900I46482J117536D01*
G01X4474100Y4533200D01*
X4468800Y4538500D01*
X4456700Y4526400D01*
Y4066200D01*
G37*
G36*
G01X3299800D02*
X3099400D01*
Y4187800D01*
G03X3086100Y4197500I-10204J-22D01*
G02X2967100Y4415100I-38116J120494D01*
G02X3001500Y4435500I80856J-97141D01*
G03Y4454500I-3796J9500D01*
G02Y4689500I46500J117500D01*
G03Y4708500I-3796J9500D01*
G02Y4943500I46500J117500D01*
G03Y4962500I-3796J9500D01*
G02X3014800Y5202000I46465J117539D01*
G02X3094500Y4962500I33164J-121975D01*
G03Y4943500I3796J-9500D01*
G02X3173100Y4844000I-46493J-117522D01*
G01X3173300Y4842400D01*
X3246500Y4769200D01*
Y4729700D01*
X3299800Y4676400D01*
Y4066200D01*
G37*
G36*
G01X3700700Y3811800D02*
G02X3598500Y4031000I-17705J125170D01*
G02X3607800Y4038600I84551J-93974D01*
G02X3620900Y4047100I75222J-101586D01*
G03X3615900Y4066200I-4964J8905D01*
G01X3607800D01*
Y4543700D01*
X3665900Y4601900D01*
G03Y4616300I-7206J7200D01*
G02X3835200Y4600500I94131J93690D01*
G01Y4558500D01*
X3758200Y4481500D01*
Y4066200D01*
X3750100D01*
G03X3745100Y4047100I-36J-10195D01*
G02X3758200Y4038600I-62122J-110086D01*
G02X3766500Y4031900I-75183J-101628D01*
G02X3808200Y3919300I-83479J-94937D01*
G01X3808000Y3918300D01*
G02X3701700Y3812000I-125000J18700D01*
G01X3700700Y3811800D01*
G37*
G36*
G01X8246200Y3663600D02*
X8093800D01*
G02X8043600Y3713800I0J50200D01*
G01Y3866200D01*
G02X8093800Y3916400I50200J0D01*
G01X8246200D01*
G02X8296400Y3866200I0J-50200D01*
G01Y3713800D01*
G02X8246200Y3663600I-50200J0D01*
G37*
G36*
G01X2248300Y3861000D02*
G02X2139000Y3751700I21700J-131000D01*
G01X2139400Y3754200D01*
G02X2245800Y3860600I130600J-24200D01*
G01X2248300Y3861000D01*
G37*
G36*
G01X4028500Y3595800D02*
G02X3810700Y3687200I-91465J87245D01*
G01Y3688000D01*
G02X3918300Y3808000I126297J-5006D01*
G01X3919000Y3808100D01*
G02X4028500Y3595800I17995J-125107D01*
G37*
G36*
G01X3555400Y3685000D02*
G02X3327400Y3607800I-126399J-1981D01*
G02X3318900Y3620900I101586J75222D01*
G03X3299800Y3615900I-8905J-4964D01*
G01Y3607800D01*
X3283900D01*
X3236900Y3654800D01*
X3099400D01*
Y3805200D01*
X3299100D01*
X3299800Y3804500D01*
Y3750100D01*
G03X3318900Y3745100I10195J-36D01*
G02X3555400Y3685000I110107J-62095D01*
G37*
G36*
G01X8193100Y3424700D02*
G02X8283300Y3527100I-23125J111297D01*
G03Y3526100I10170J-500D01*
G02X8194200Y3424900I-113279J9912D01*
G01X8193100Y3424700D01*
G37*
G36*
G01X9481800Y3374900D02*
X9481200D01*
X9481300Y3375000D01*
X9481800Y3374900D01*
G37*
G36*
G01X6858500Y3155500D02*
G02X6714600Y3118500I-46495J-117500D01*
G02X6765500Y3155500I97431J-80523D01*
G03Y3174500I-3796J9500D01*
G02Y3409500I46500J117500D01*
G03Y3428500I-3796J9500D01*
G02Y3663500I46500J117500D01*
G03Y3682500I-3796J9500D01*
G02X6858500I46500J117500D01*
G03Y3663500I3796J-9500D01*
G02Y3428500I-46500J-117500D01*
G03Y3409500I3796J-9500D01*
G02Y3174500I-46500J-117500D01*
G03Y3155500I3796J-9500D01*
G37*
G36*
G01X6096500D02*
G02X6003500I-46500J-117500D01*
G03Y3174500I-3796J9500D01*
G02Y3409500I46500J117500D01*
G03Y3428500I-3796J9500D01*
G02X5985400Y3654600I46528J117499D01*
G03X5980200Y3673600I-5194J8790D01*
G01X5973800D01*
G02X5923600Y3723800I0J50200D01*
G01Y3876200D01*
G02X5973800Y3926400I50200J0D01*
G01X6126200D01*
G02X6176400Y3876200I0J-50200D01*
G01Y3723800D01*
G02X6126200Y3673600I-50200J0D01*
G01X6119800D01*
G03X6114600Y3654600I-6J-10210D01*
G02X6096500Y3428500I-64628J-108601D01*
G03Y3409500I3796J-9500D01*
G02Y3174500I-46500J-117500D01*
G03Y3155500I3796J-9500D01*
G37*
G36*
G01X8978500Y3145500D02*
G02X8885500I-46500J-117500D01*
G03Y3164500I-3796J9500D01*
G02Y3399500I46500J117500D01*
G03Y3418500I-3796J9500D01*
G02Y3653500I46500J117500D01*
G03Y3672500I-3796J9500D01*
G02X8809600Y3821400I46507J117501D01*
G03X8809700Y3821800I-9854J2676D01*
G02X8828200Y3862100I122325J-31758D01*
G02X8970100Y3910500I103795J-72094D01*
G03X8970700Y3910300I3526J9579D01*
G02X8978500Y3672500I-38697J-120297D01*
G03Y3653500I3796J-9500D01*
G02Y3418500I-46500J-117500D01*
G03Y3399500I3796J-9500D01*
G02X9033600Y3357200I-46451J-117544D01*
G01X9067500D01*
X9046300Y3336000D01*
G02X8978500Y3164500I-114292J-53968D01*
G03Y3145500I3796J-9500D01*
G37*
G36*
G01X8216500D02*
G02X8123500I-46500J-117500D01*
G03Y3164500I-3796J9500D01*
G02X8216500I46500J117500D01*
G03Y3145500I3796J-9500D01*
G37*
G36*
G01X7060200Y2376300D02*
X6905500D01*
X6909800Y2380600D01*
Y2576700D01*
X7060200D01*
Y2376300D01*
G37*
G36*
G01X3542900Y2199700D02*
G02X3322300Y2236700I-94903J110300D01*
G03X3305000Y2237100I-8775J-5189D01*
G02X3094400Y2222200I-110985J72909D01*
G01X3092900Y2223900D01*
X3085400D01*
Y2214700D01*
G02X3035300Y2164600I-50150J50D01*
G01X2844700D01*
G02X2794800Y2210800I81J50135D01*
G02X2794600Y2214700I49921J4515D01*
G01Y2405300D01*
G02X2844700Y2455400I50150J-50D01*
G01X3035300D01*
G02X3085400Y2405300I-50J-50150D01*
G01Y2396100D01*
X3092900D01*
X3094400Y2397800D01*
G02X3157300Y2437600I99603J-87809D01*
G03X3157600Y2437700I-3075J9725D01*
G02X3305000Y2382900I36409J-127705D01*
G03X3322300Y2383300I8525J5589D01*
G02X3553500Y2410200I125693J-73298D01*
G02Y2209800I-105507J-100200D01*
G02X3542900Y2199700I-105546J100159D01*
G37*
G36*
G01X1117600Y2210800D02*
G02X914400Y2361200I-101587J75217D01*
G02X1117600Y2210800I101600J-75200D01*
G37*
G36*
G01X5406400Y2251400D02*
G02X5203700Y2350700I-126375J-1433D01*
G01X5204300Y2351200D01*
G02X5406400Y2251400I75702J-101230D01*
G37*
G36*
G01X6925500Y2180700D02*
G02X6816200Y2290000I-131000J-21700D01*
G01X6817600Y2289800D01*
G02X6925300Y2182100I-23100J-130800D01*
G01X6925500Y2180700D01*
G37*
G36*
G01X1077600Y1478400D02*
G02X850900Y1385300I-125121J-17888D01*
G02Y1535700I101600J75200D01*
G02X970400Y1585600I101577J-75216D01*
G01X971200Y1585500D01*
G02X1077500Y1479200I-18700J-125000D01*
G01X1077600Y1478400D01*
G37*
G36*
G01X5395100Y1416000D02*
G02X5194300Y1332800I-125100J18011D01*
G01X5192900Y1333800D01*
G02Y1534200I77100J100200D01*
G02X5252000Y1559100I77024J-100229D01*
G01X5253600Y1559300D01*
X5253700Y1559400D01*
G02X5347100Y1534200I16269J-125387D01*
G01X5446400D01*
X5487800Y1575600D01*
Y2481500D01*
X5583000Y2576700D01*
X5688200D01*
Y2376300D01*
X5666000D01*
X5624700Y2335000D01*
Y1647000D01*
X5395300Y1417600D01*
X5395100Y1416000D01*
G37*
G36*
G01X3573500Y1319800D02*
G02X3349300Y1335800I-105521J100193D01*
G03X3332700I-8300J-5870D01*
G02X3108700Y1319600I-118675J84195D01*
G03X3091500Y1315100I-7337J-7079D01*
G02X3055300Y1287200I-36266J9621D01*
G01X2864800D01*
G02X2827200Y1324800I-50J37550D01*
G01Y1515200D01*
G02X2864800Y1552800I37550J50D01*
G01X3055300D01*
G02X3091500Y1524900I-66J-37521D01*
G03X3108700Y1520400I9863J2579D01*
G02X3332700Y1504200I105325J-100395D01*
G03X3349300I8300J5870D01*
G02X3573500Y1520200I118679J-84193D01*
G02Y1319800I-105500J-100200D01*
G37*
G36*
G01X6904000Y1067800D02*
G02X6685000I-109500J75210D01*
G02X6873800Y1249600I109491J75228D01*
G02X6904000Y1067800I-79305J-106582D01*
G37*
G54D28*
X1254000Y3730000D03*
X4380000Y2670000D03*
X8318500Y2159000D03*
G54D25*
X1306000Y4560000D03*
X1016000Y2540000D03*
X5280000Y2504000D03*
X952500Y1206500D03*
X5270000Y1180000D03*
G54D26*
X1560000Y4560000D03*
G54D23*
X3760000Y5726000D03*
X2140000Y5720000D03*
X8953500Y5461000D03*
X7510000Y3996000D03*
X4380000Y3686000D03*
X7510000Y2980000D03*
X8318500Y1143000D03*
G54D27*
X8403700Y3941600D03*
X6540500Y2476500D03*
G54D24*
X5207000Y5524500D03*
%LPD*%
G75*
G36*
G01X246000Y246000D02*
Y754000D01*
X754000D01*
Y246000D01*
X246000D01*
G37*
G36*
G01Y6246000D02*
Y6754000D01*
X754000D01*
Y6246000D01*
X246000D01*
G37*
G36*
G01X9246000Y246000D02*
Y754000D01*
X9754000D01*
Y246000D01*
X9246000D01*
G37*
G36*
G01Y6246000D02*
Y6754000D01*
X9754000D01*
Y6246000D01*
X9246000D01*
G37*
G54D10*
X500000Y500000D03*
D03*
Y6500000D03*
D03*
X9500000Y500000D03*
D03*
Y6500000D03*
D03*
G54D20*
G01X952500Y1206500D02*
X1166000Y1420000D01*
G01X1206500Y1460500D02*
X952500Y1206500D01*
G01X1016000Y2540000D02*
X1206500Y2349500D01*
G01X1016000Y3492000D02*
Y2540000D01*
G01X1254000Y3730000D02*
X1108600D01*
G01X1254000D02*
X1016000Y3492000D01*
G01X1108600Y3730000D02*
X1092600Y3746000D01*
G01D02*
X500000D01*
G01X1206500Y2349500D02*
Y1460500D01*
G01X1166000Y1420000D02*
X2960000D01*
G01X1254000Y3730000D02*
Y3875400D01*
G01D02*
X1306000Y3927400D01*
G01D02*
Y4560000D01*
G01X2286000Y4318000D02*
X2437600Y4166400D01*
X4498400D01*
X4600000Y4268000D01*
G01X3194000Y2310000D02*
Y1654000D01*
G01D02*
X2960000Y1420000D01*
G01X3448000Y2310000D02*
X3199600Y2558400D01*
Y4634900D01*
X3146300Y4688200D01*
Y4727700D01*
X3048000Y4826000D01*
G01X3554000Y2670000D02*
X3194000Y2310000D01*
G01X5362000Y4776000D02*
X4931000Y5207000D01*
X3429000D01*
X3048000Y4826000D01*
G01X3468000Y1420000D02*
X5117000D01*
X5131000Y1434000D01*
X5270000D01*
G01X3448000Y2310000D02*
X5081000D01*
X5141000Y2250000D01*
X5280000D01*
G01X4380000Y2670000D02*
X3554000D01*
G01X5440000D02*
X4380000D01*
G01X4600000Y4268000D02*
X5130000D01*
X5588000Y3810000D01*
Y3048000D01*
G01X5270000Y1434000D02*
X5487900D01*
X5588000Y1534100D01*
Y3048000D01*
G01X5270000Y1434000D02*
X5524500Y1688500D01*
Y2376500D01*
X5624500Y2476500D01*
X8069900D01*
X8170000Y2576600D01*
Y3028000D01*
G01X5270000Y1180000D02*
X5080000Y1370000D01*
G01D02*
Y2304000D01*
G01X5443000Y2667000D02*
X5280000Y2504000D01*
G01X5080000Y2304000D02*
X5280000Y2504000D01*
G01X5443000Y2667000D02*
X5440000Y2670000D01*
G01X8018400Y3384400D02*
Y2767000D01*
X7918400Y2667000D01*
X5765400D01*
X5759700Y2672700D01*
X5514300D01*
X5508600Y2667000D01*
X5443000D01*
G01X5588000Y3048000D02*
X5901000D01*
X5911000Y3038000D01*
X6050000D01*
G01X6812000Y3546000D02*
X6450100D01*
X6350000Y3646100D01*
Y4676000D01*
X6250000Y4776000D01*
X5362000D01*
G01X8932000Y3536000D02*
X8526400Y3941600D01*
X8005500D01*
X7599900Y3536000D01*
X6961000D01*
X6951000Y3546000D01*
X6812000D01*
G01X8018400Y2459100D02*
X8318500Y2159000D01*
G01X8170000Y3536000D02*
X8018400Y3384400D01*
G01X8170000Y3536000D02*
X8018400Y3384400D01*
G01X8318500Y2159000D02*
X9017000D01*
G01X8018400Y3384400D02*
Y2459100D01*
G01X9017000Y2159000D02*
X9083600Y2225600D01*
Y3337600D01*
G01X9021300Y3410800D02*
X9017700D01*
G01X9083600Y3337600D02*
X9500000Y3754000D01*
G54D11*
X500000Y500000D03*
Y6500000D03*
X9500000Y500000D03*
Y6500000D03*
X11962900Y145900D03*
G54D21*
G01X2680600Y1712100D02*
Y1140600D01*
G01D02*
X3747400D01*
G01Y1712100D02*
X2680600D01*
G01Y1572400D02*
X3747400D01*
G01X2660600Y2602100D02*
Y2030600D01*
G01D02*
X3727400D01*
G01Y2602100D02*
X2660600D01*
G01Y2462400D02*
X3727400D01*
G01X3747400Y1140600D02*
Y1712100D01*
G01X3727400Y2030600D02*
Y2602100D01*
G54D12*
X952500Y1206500D03*
D03*
Y1460500D03*
D03*
X1016000Y2540000D03*
D03*
Y2286000D03*
D03*
X500000Y3492000D03*
D03*
Y3746000D03*
D03*
Y4000000D03*
D03*
X1306000Y4560000D03*
D03*
X1560000D03*
D03*
X2286000Y4318000D03*
D03*
Y4572000D03*
D03*
Y4826000D03*
D03*
X3429000Y3683000D03*
D03*
X3048000Y4318000D03*
D03*
Y4572000D03*
D03*
Y4826000D03*
D03*
Y5080000D03*
D03*
X3683000Y3937000D03*
D03*
X3937000Y3683000D03*
D03*
X4600000Y4268000D03*
D03*
Y4522000D03*
D03*
Y4776000D03*
D03*
X5270000Y1180000D03*
D03*
Y1434000D03*
D03*
X5280000Y2504000D03*
D03*
Y2250000D03*
D03*
X5362000Y4268000D03*
D03*
Y4522000D03*
D03*
Y4776000D03*
D03*
Y5030000D03*
D03*
X6050000Y3038000D03*
D03*
Y3292000D03*
D03*
Y3546000D03*
D03*
X6812000Y3038000D03*
D03*
Y3292000D03*
D03*
Y3546000D03*
D03*
Y3800000D03*
D03*
X7630000Y5644000D03*
D03*
Y5390000D03*
D03*
X8170000Y3028000D03*
D03*
Y3282000D03*
D03*
Y3536000D03*
D03*
X8932000Y3028000D03*
D03*
Y3282000D03*
D03*
Y3536000D03*
D03*
Y3790000D03*
D03*
X9500000Y3754000D03*
D03*
Y3500000D03*
D03*
G54D22*
G01X952500Y1087700D02*
Y1206500D01*
G01Y1087700D02*
Y1206500D01*
G01D02*
Y1325300D01*
G01X833700Y1206500D02*
X952500D01*
G01D02*
X1071300D01*
G01X952500D02*
Y1325300D01*
G01X833700Y1206500D02*
X952500D01*
G01D02*
X1071300D01*
G01X952500Y1460500D02*
X698500D01*
X500000Y1659000D01*
Y3492000D01*
G01X3105700Y1536100D02*
X3054300Y1587500D01*
X1079500D01*
X952500Y1460500D01*
G01X1016000Y2421200D02*
Y2540000D01*
G01X897200D02*
X1016000D01*
G01D02*
X1134800D01*
G01X1016000Y2421200D02*
Y2540000D01*
G01D02*
Y2658800D01*
G01X897200Y2540000D02*
X1016000D01*
G01D02*
X1134800D01*
G01X1016000Y2286000D02*
X762000D01*
X635000Y2413000D01*
Y3865000D01*
X500000Y4000000D01*
G01X2940000Y2310000D02*
X1154000D01*
X1130000Y2286000D01*
X1016000D01*
G01X500000Y3627200D02*
Y3746000D01*
G01D02*
Y3864800D01*
G01X1254000Y3604800D02*
Y3730000D01*
G01X1128800D02*
X1254000D01*
G01D02*
X1379200D01*
G01X1254000Y3604800D02*
Y3730000D01*
G01D02*
Y3855200D01*
G01Y3730000D02*
X1379200D01*
G01X1560000Y4560000D02*
X2160000D01*
X2172000Y4572000D01*
X2286000D01*
G01X1306000Y4560000D02*
Y4678800D01*
G01X1187200Y4560000D02*
X1306000D01*
G01D02*
X1424800D01*
G01X1306000Y4441200D02*
Y4560000D01*
G01D02*
Y4678800D01*
G01X1187200Y4560000D02*
X1306000D01*
G01D02*
X1424800D01*
G01X2270000Y3730000D02*
X2159400Y3840600D01*
Y4699400D01*
X2286000Y4826000D01*
G01X2270000Y3730000D02*
X3268000D01*
X3315000Y3683000D01*
X3429000D01*
G01X2140000Y5720000D02*
X2344400D01*
X2412600Y5651800D01*
Y4698600D01*
X2286000Y4572000D01*
G01X2960000Y1282100D02*
Y1420000D01*
G01D02*
Y1557900D01*
G01X2822100Y1420000D02*
X2960000D01*
G01X3119900Y1514100D02*
X3214000Y1420000D01*
G01X3105700Y1536100D02*
X3119900Y1521900D01*
Y1514100D01*
G01X3105700Y1536100D02*
Y1528300D01*
X3119900Y1514100D01*
G01X3194000Y2172100D02*
Y2310000D01*
G01D02*
Y2447900D01*
G01X3048000Y4572000D02*
X3622000D01*
X3760000Y4710000D01*
G01X3156000Y5720000D02*
X2921000Y5485000D01*
Y4699000D01*
X3048000Y4572000D01*
G01X3722700Y254000D02*
X3589300D01*
Y654000D01*
X3722700D01*
G01X3669300Y460700D02*
X3589300D01*
G01X3804500Y654000D02*
Y254000D01*
X3937900D01*
G01X4153100D02*
X4019700D01*
Y654000D01*
X4153100D01*
G01X4099700Y460700D02*
X4019700D01*
G01X4374900Y620700D02*
X4354900Y640700D01*
X4331600Y654000D01*
X4304900D01*
X4274900Y634000D01*
X4251600Y600700D01*
X4234900Y560700D01*
X4221600Y494000D01*
X4218300Y434000D01*
X4224900Y374000D01*
X4234900Y334000D01*
X4254900Y294000D01*
X4278300Y267300D01*
X4301600Y254000D01*
X4324900D01*
X4348300Y267300D01*
X4368300Y287300D01*
X4384900Y314000D01*
G01X4516800Y654000D02*
Y254000D01*
G01X4440100Y654000D02*
X4593500D01*
G01X4665300Y254000D02*
Y654000D01*
X4748700D01*
X4775300Y634000D01*
X4792000Y607300D01*
X4798700Y554000D01*
X4792000Y500700D01*
X4772000Y467300D01*
X4748700Y447300D01*
X4665300D01*
G01X4748700D02*
X4798700Y254000D01*
G01X4947200D02*
X4920500Y260700D01*
X4897200Y287300D01*
X4877200Y327300D01*
X4863900Y374000D01*
X4857200Y427300D01*
Y480700D01*
X4863900Y534000D01*
X4877200Y580700D01*
X4897200Y620700D01*
X4920500Y647300D01*
X4947200Y654000D01*
X4973900Y647300D01*
X4997200Y620700D01*
X5017200Y580700D01*
X5030500Y534000D01*
X5037200Y480700D01*
Y427300D01*
X5030500Y374000D01*
X5017200Y327300D01*
X4997200Y287300D01*
X4973900Y260700D01*
X4947200Y254000D01*
G01X5085700D02*
Y654000D01*
X5239100Y254000D01*
Y654000D01*
G01X5337600D02*
X5417600D01*
G01X5377600D02*
Y254000D01*
G01X5337600D02*
X5417600D01*
G01X5666100Y620700D02*
X5646100Y640700D01*
X5622800Y654000D01*
X5596100D01*
X5566100Y634000D01*
X5542800Y600700D01*
X5526100Y560700D01*
X5512800Y494000D01*
X5509500Y434000D01*
X5516100Y374000D01*
X5526100Y334000D01*
X5546100Y294000D01*
X5569500Y267300D01*
X5592800Y254000D01*
X5616100D01*
X5639500Y267300D01*
X5659500Y287300D01*
X5676100Y314000D01*
G01X6096500Y620700D02*
X6076500Y640700D01*
X6053200Y654000D01*
X6026500D01*
X5996500Y634000D01*
X5973200Y600700D01*
X5956500Y560700D01*
X5943200Y494000D01*
X5939900Y434000D01*
X5946500Y374000D01*
X5956500Y334000D01*
X5976500Y294000D01*
X5999900Y267300D01*
X6023200Y254000D01*
X6046500D01*
X6069900Y267300D01*
X6089900Y287300D01*
X6106500Y314000D01*
G01X6155100Y254000D02*
X6238400Y654000D01*
X6321700Y254000D01*
G01X6291700Y394000D02*
X6185100D01*
G01X6380300Y254000D02*
Y654000D01*
X6446900D01*
X6473600Y634000D01*
X6493600Y607300D01*
X6510300Y567300D01*
X6523600Y520700D01*
X6526900Y454000D01*
X6523600Y387300D01*
X6510300Y340700D01*
X6493600Y300700D01*
X6473600Y274000D01*
X6446900Y254000D01*
X6380300D01*
G01X3683000Y3937000D02*
Y4512600D01*
X3760000Y4589600D01*
Y4710000D01*
G01X3937000Y3683000D02*
X3923500D01*
X3873500Y3733000D01*
Y3746500D01*
X3683000Y3937000D01*
G01X3910000Y6350000D02*
X3883300Y6356700D01*
X3860000Y6383300D01*
X3840000Y6423300D01*
X3826700Y6470000D01*
X3820000Y6523300D01*
Y6576700D01*
X3826700Y6630000D01*
X3840000Y6676700D01*
X3860000Y6716700D01*
X3883300Y6743300D01*
X3910000Y6750000D01*
X3936700Y6743300D01*
X3960000Y6716700D01*
X3980000Y6676700D01*
X3993300Y6630000D01*
X4000000Y6576700D01*
Y6523300D01*
X3993300Y6470000D01*
X3980000Y6423300D01*
X3960000Y6383300D01*
X3936700Y6356700D01*
X3910000Y6350000D01*
G01X4055200Y6403300D02*
X4081900Y6370000D01*
X4111900Y6350000D01*
X4138500D01*
X4165200Y6370000D01*
X4185200Y6403300D01*
X4195200Y6450000D01*
X4188500Y6496700D01*
X4171900Y6536700D01*
X4141900Y6563300D01*
X4101900Y6576700D01*
X4078500Y6603300D01*
X4068500Y6650000D01*
X4075200Y6696700D01*
X4091900Y6730000D01*
X4115200Y6750000D01*
X4138500D01*
X4161900Y6736700D01*
X4181900Y6703300D01*
G01X4413700Y6716700D02*
X4393700Y6736700D01*
X4370400Y6750000D01*
X4343700D01*
X4313700Y6730000D01*
X4290400Y6696700D01*
X4273700Y6656700D01*
X4260400Y6590000D01*
X4257100Y6530000D01*
X4263700Y6470000D01*
X4273700Y6430000D01*
X4293700Y6390000D01*
X4317100Y6363300D01*
X4340400Y6350000D01*
X4363700D01*
X4387100Y6363300D01*
X4407100Y6383300D01*
X4423700Y6410000D01*
G01X4515600Y6750000D02*
X4595600D01*
G01X4555600D02*
Y6350000D01*
G01X4515600D02*
X4595600D01*
G01X4704100Y6750000D02*
Y6350000D01*
X4837500D01*
G01X4919300Y6750000D02*
Y6350000D01*
X5052700D01*
G01X5117900D02*
X5201200Y6750000D01*
X5284500Y6350000D01*
G01X5254500Y6490000D02*
X5147900D01*
G01X5416400Y6750000D02*
Y6350000D01*
G01X5339700Y6750000D02*
X5493100D01*
G01X5631600Y6350000D02*
X5604900Y6356700D01*
X5581600Y6383300D01*
X5561600Y6423300D01*
X5548300Y6470000D01*
X5541600Y6523300D01*
Y6576700D01*
X5548300Y6630000D01*
X5561600Y6676700D01*
X5581600Y6716700D01*
X5604900Y6743300D01*
X5631600Y6750000D01*
X5658300Y6743300D01*
X5681600Y6716700D01*
X5701600Y6676700D01*
X5714900Y6630000D01*
X5721600Y6576700D01*
Y6523300D01*
X5714900Y6470000D01*
X5701600Y6423300D01*
X5681600Y6383300D01*
X5658300Y6356700D01*
X5631600Y6350000D01*
G01X5780100D02*
Y6750000D01*
X5863500D01*
X5890100Y6730000D01*
X5906800Y6703300D01*
X5913500Y6650000D01*
X5906800Y6596700D01*
X5886800Y6563300D01*
X5863500Y6543300D01*
X5780100D01*
G01X5863500D02*
X5913500Y6350000D01*
G01X3760000Y5726000D02*
X4413600D01*
X4439600Y5700000D01*
X4560000D01*
G01X4380000Y2544800D02*
Y2670000D01*
G01Y2544800D02*
Y2670000D01*
G01D02*
Y2795200D01*
G01X4254800Y2670000D02*
X4380000D01*
G01D02*
X4505200D01*
G01X4380000D02*
Y2795200D01*
G01Y3686000D02*
Y3872000D01*
X4381500Y3873500D01*
Y4557500D01*
X4600000Y4776000D01*
G01X4560000Y5700000D02*
X4726600Y5533400D01*
Y4648600D01*
X4600000Y4522000D01*
G01X7630000Y5390000D02*
X7495500Y5524500D01*
X4735500D01*
X4560000Y5700000D01*
G01X5270000Y1061200D02*
Y1180000D01*
G01Y1061200D02*
Y1180000D01*
G01D02*
Y1298800D01*
G01X5151200Y1180000D02*
X5270000D01*
G01D02*
X5388800D01*
G01X5270000D02*
Y1298800D01*
G01X5151200Y1180000D02*
X5270000D01*
G01D02*
X5388800D01*
G01X5280000Y2385200D02*
Y2504000D01*
G01D02*
Y2622800D01*
G01X5161200Y2504000D02*
X5280000D01*
G01D02*
X5398800D01*
G01X5280000Y2385200D02*
Y2504000D01*
G01D02*
Y2622800D01*
G01X5161200Y2504000D02*
X5280000D01*
G01D02*
X5398800D01*
G01X5576000Y5700000D02*
X5257000D01*
X5207000Y5650000D01*
Y4677000D01*
X5362000Y4522000D01*
G01D02*
X5792000D01*
X5842000Y4472000D01*
Y3342000D01*
X5892000Y3292000D01*
X6050000D01*
G01X5576000Y5700000D02*
X7460000D01*
X7516000Y5644000D01*
X7630000D01*
G01X6050000Y3546000D02*
X6296400D01*
X6540500Y3301900D01*
Y1270000D01*
X6667500Y1143000D01*
X6794500D01*
G01D02*
X8318500D01*
G01X6794500Y2159000D02*
X6985000Y2349500D01*
Y3119000D01*
G01X7510000Y2980000D02*
X7124000D01*
X6985000Y3119000D01*
G01D02*
X6812000Y3292000D01*
G01X8318500Y4445000D02*
X7620000D01*
X7510000Y4335000D01*
Y3996000D01*
G01X7630000Y5644000D02*
X8135500D01*
X8318500Y5461000D01*
G01Y2033800D02*
Y2159000D01*
G01D02*
Y2284200D01*
G01X8193300Y2159000D02*
X8318500D01*
G01Y2033800D02*
Y2159000D01*
G01D02*
Y2284200D01*
G01X8193300Y2159000D02*
X8318500D01*
G01D02*
X8443700D01*
G01X8170000Y3282000D02*
X8403700Y3515700D01*
Y4359800D01*
X8318500Y4445000D01*
G01X8170000Y3417200D02*
Y3536000D01*
G01D02*
Y3654800D01*
G01X8051200Y3536000D02*
X8170000D01*
G01D02*
X8288800D01*
G01X8170000Y3417200D02*
Y3536000D01*
G01D02*
Y3654800D01*
G01X8051200Y3536000D02*
X8170000D01*
G01D02*
X8288800D01*
G01X8318500Y4445000D02*
X8459000D01*
X8509000Y4495000D01*
Y5334000D01*
X8636000Y5461000D01*
X8953500D01*
G01X8932000Y3282000D02*
X9282000D01*
X9500000Y3500000D01*
G01X8932000Y3282000D02*
Y3328000D01*
X9058600Y3454600D01*
Y4339900D01*
X8953500Y4445000D01*
G01X9500000Y3635200D02*
Y3754000D01*
G01D02*
Y3872800D01*
G01X9381200Y3754000D02*
X9500000D01*
G01Y3635200D02*
Y3754000D01*
G01D02*
Y3872800D01*
G01X9381200Y3754000D02*
X9500000D01*
G54D13*
X952500Y1206500D03*
Y1460500D03*
X1016000Y2540000D03*
Y2286000D03*
X500000Y3492000D03*
Y3746000D03*
Y4000000D03*
X1306000Y4560000D03*
X1560000D03*
X2286000Y4318000D03*
Y4572000D03*
Y4826000D03*
Y5080000D03*
X3429000Y3683000D03*
X3048000Y4318000D03*
Y4572000D03*
Y4826000D03*
Y5080000D03*
X3683000Y3937000D03*
X3937000Y3683000D03*
X4600000Y4268000D03*
Y4522000D03*
Y4776000D03*
Y5030000D03*
X5270000Y1180000D03*
Y1434000D03*
X5280000Y2504000D03*
Y2250000D03*
X5362000Y4268000D03*
Y4522000D03*
Y4776000D03*
Y5030000D03*
X6050000Y3038000D03*
Y3292000D03*
Y3546000D03*
Y3800000D03*
X6812000Y3038000D03*
Y3292000D03*
Y3546000D03*
Y3800000D03*
X7630000Y5644000D03*
Y5390000D03*
X8170000Y3028000D03*
Y3282000D03*
Y3536000D03*
Y3790000D03*
X8932000Y3028000D03*
Y3282000D03*
Y3536000D03*
Y3790000D03*
X9500000Y3754000D03*
Y3500000D03*
X11962900Y1003100D03*
G54D14*
X1254000Y3730000D03*
D03*
X2270000D03*
D03*
X2140000Y5720000D03*
D03*
X3156000D03*
D03*
X3760000Y4710000D03*
D03*
Y5726000D03*
D03*
X4380000Y2670000D03*
D03*
Y3686000D03*
D03*
X4560000Y5700000D03*
D03*
X5576000D03*
D03*
X6794500Y1143000D03*
D03*
Y2159000D03*
D03*
X7510000Y2980000D03*
D03*
Y3996000D03*
D03*
X8318500Y1143000D03*
D03*
Y2159000D03*
D03*
Y4445000D03*
D03*
Y5461000D03*
D03*
X8953500Y4445000D03*
D03*
Y5461000D03*
D03*
G54D15*
X1254000Y3730000D03*
X2270000D03*
X2140000Y5720000D03*
X3156000D03*
X3760000Y4710000D03*
Y5726000D03*
X4380000Y2670000D03*
Y3686000D03*
X4560000Y5700000D03*
X5576000D03*
X6794500Y1143000D03*
Y2159000D03*
X7510000Y2980000D03*
Y3996000D03*
X8318500Y1143000D03*
Y2159000D03*
Y4445000D03*
Y5461000D03*
X8953500Y4445000D03*
Y5461000D03*
X11962900Y717400D03*
G54D16*
X2286000Y5080000D03*
D03*
X4600000Y5030000D03*
D03*
X6050000Y3800000D03*
D03*
X8170000Y3790000D03*
D03*
G54D17*
X2960000Y1420000D03*
D03*
X2940000Y2310000D03*
D03*
G54D18*
X2960000Y1420000D03*
X3214000D03*
X3468000D03*
X2940000Y2310000D03*
X3194000D03*
X3448000D03*
X11962900Y431600D03*
G54D19*
X3214000Y1420000D03*
D03*
X3468000D03*
D03*
X3194000Y2310000D03*
D03*
X3448000D03*
D03*
M02*
