G04 ================== begin FILE IDENTIFICATION RECORD ==================*
G04 Layout Name:  C:/USERS/USER/DESKTOP/DA CONVERTOR/allegro/OSCILLATOR.brd*
G04 Film Name:    DrillDraw*
G04 File Format:  Gerber RS274X*
G04 File Origin:  Cadence Allegro 17.2-P019*
G04 Origin Date:  Thu Aug 01 11:09:31 2019*
G04 *
G04 Layer:  MANUFACTURING/NCLEGEND-1-2*
G04 Layer:  BOARD GEOMETRY/DESIGN_OUTLINE*
G04 *
G04 Offset:    (0.000 0.000)*
G04 Mirror:    No*
G04 Mode:      Positive*
G04 Rotation:  0*
G04 FullContactRelief:  No*
G04 UndefLineWidth:     0.100*
G04 ================== end FILE IDENTIFICATION RECORD ====================*
%FSLAX25Y25*MOMM*%
%IR0*IPPOS*OFA0.00000B0.00000*MIA0B0*SFA1.00000B1.00000*%
%AMMACRO13*
1,1,.1,.686,0.0*
20,1,.1,.686,0.0,.675578,-.119123,0.0*
1,1,.1,.675578,-.119123*
20,1,.1,.675578,-.119123,.644629,-.234626,0.0*
1,1,.1,.644629,-.234626*
20,1,.1,.644629,-.234626,.594093,-.343,0.0*
1,1,.1,.594093,-.343*
20,1,.1,.594093,-.343,.525506,-.440952,0.0*
1,1,.1,.525506,-.440952*
20,1,.1,.525506,-.440952,.440952,-.525506,0.0*
1,1,.1,.440952,-.525506*
20,1,.1,.440952,-.525506,.343,-.594093,0.0*
1,1,.1,.343,-.594093*
20,1,.1,.343,-.594093,.234626,-.644629,0.0*
1,1,.1,.234626,-.644629*
20,1,.1,.234626,-.644629,.119123,-.675578,0.0*
1,1,.1,.119123,-.675578*
20,1,.1,.119123,-.675578,0.0,-.686,0.0*
1,1,.1,0.0,-.686*
20,1,.1,0.0,-.686,-.119123,-.675578,0.0*
1,1,.1,-.119123,-.675578*
20,1,.1,-.119123,-.675578,-.234626,-.644629,0.0*
1,1,.1,-.234626,-.644629*
20,1,.1,-.234626,-.644629,-.343,-.594093,0.0*
1,1,.1,-.343,-.594093*
20,1,.1,-.343,-.594093,-.440952,-.525506,0.0*
1,1,.1,-.440952,-.525506*
20,1,.1,-.440952,-.525506,-.525506,-.440952,0.0*
1,1,.1,-.525506,-.440952*
20,1,.1,-.525506,-.440952,-.594093,-.343,0.0*
1,1,.1,-.594093,-.343*
20,1,.1,-.594093,-.343,-.644629,-.234626,0.0*
1,1,.1,-.644629,-.234626*
20,1,.1,-.644629,-.234626,-.675578,-.119123,0.0*
1,1,.1,-.675578,-.119123*
20,1,.1,-.675578,-.119123,-.686,0.0,0.0*
1,1,.1,-.686,0.0*
20,1,.1,-.686,0.0,-.675578,.119123,0.0*
1,1,.1,-.675578,.119123*
20,1,.1,-.675578,.119123,-.644629,.234626,0.0*
1,1,.1,-.644629,.234626*
20,1,.1,-.644629,.234626,-.594093,.343,0.0*
1,1,.1,-.594093,.343*
20,1,.1,-.594093,.343,-.525506,.440952,0.0*
1,1,.1,-.525506,.440952*
20,1,.1,-.525506,.440952,-.440952,.525506,0.0*
1,1,.1,-.440952,.525506*
20,1,.1,-.440952,.525506,-.343,.594093,0.0*
1,1,.1,-.343,.594093*
20,1,.1,-.343,.594093,-.234626,.644629,0.0*
1,1,.1,-.234626,.644629*
20,1,.1,-.234626,.644629,-.119123,.675578,0.0*
1,1,.1,-.119123,.675578*
20,1,.1,-.119123,.675578,0.0,.686,0.0*
1,1,.1,0.0,.686*
20,1,.1,0.0,.686,.119123,.675578,0.0*
1,1,.1,.119123,.675578*
20,1,.1,.119123,.675578,.234626,.644629,0.0*
1,1,.1,.234626,.644629*
20,1,.1,.234626,.644629,.343,.594093,0.0*
1,1,.1,.343,.594093*
20,1,.1,.343,.594093,.440952,.525506,0.0*
1,1,.1,.440952,.525506*
20,1,.1,.440952,.525506,.525506,.440952,0.0*
1,1,.1,.525506,.440952*
20,1,.1,.525506,.440952,.594093,.343,0.0*
1,1,.1,.594093,.343*
20,1,.1,.594093,.343,.644629,.234626,0.0*
1,1,.1,.644629,.234626*
20,1,.1,.644629,.234626,.675578,.119123,0.0*
1,1,.1,.675578,.119123*
20,1,.1,.675578,.119123,.686,0.0,0.0*
1,1,.1,.686,0.0*
1,1,.1,-.286,-.343*
20,1,.1,-.286,-.343,0.0,.343,0.0*
1,1,.1,0.0,.343*
20,1,.1,0.0,.343,.286,-.343,0.0*
1,1,.1,.286,-.343*
1,1,.1,.183,-.103*
20,1,.1,.183,-.103,-.183,-.103,0.0*
1,1,.1,-.183,-.103*
%
%ADD13MACRO13*%
%AMMACRO12*
1,1,.1,-.508,.3175*
20,1,.1,-.508,.3175,-.500282,.405713,0.0*
1,1,.1,-.500282,.405713*
20,1,.1,-.500282,.405713,-.477364,.491246,0.0*
1,1,.1,-.477364,.491246*
20,1,.1,-.477364,.491246,-.439941,.5715,0.0*
1,1,.1,-.439941,.5715*
20,1,.1,-.439941,.5715,-.389151,.644036,0.0*
1,1,.1,-.389151,.644036*
20,1,.1,-.389151,.644036,-.326536,.706651,0.0*
1,1,.1,-.326536,.706651*
20,1,.1,-.326536,.706651,-.254,.757441,0.0*
1,1,.1,-.254,.757441*
20,1,.1,-.254,.757441,-.173746,.794864,0.0*
1,1,.1,-.173746,.794864*
20,1,.1,-.173746,.794864,-.088213,.817782,0.0*
1,1,.1,-.088213,.817782*
20,1,.1,-.088213,.817782,0.0,.8255,0.0*
1,1,.1,0.0,.8255*
20,1,.1,0.0,.8255,.088213,.817782,0.0*
1,1,.1,.088213,.817782*
20,1,.1,.088213,.817782,.173746,.794864,0.0*
1,1,.1,.173746,.794864*
20,1,.1,.173746,.794864,.254,.757441,0.0*
1,1,.1,.254,.757441*
20,1,.1,.254,.757441,.326536,.706651,0.0*
1,1,.1,.326536,.706651*
20,1,.1,.326536,.706651,.389151,.644036,0.0*
1,1,.1,.389151,.644036*
20,1,.1,.389151,.644036,.439941,.5715,0.0*
1,1,.1,.439941,.5715*
20,1,.1,.439941,.5715,.477364,.491246,0.0*
1,1,.1,.477364,.491246*
20,1,.1,.477364,.491246,.500282,.405713,0.0*
1,1,.1,.500282,.405713*
20,1,.1,.500282,.405713,.508,.3175,0.0*
1,1,.1,.508,.3175*
20,1,.1,.508,.3175,.508,-.3175,0.0*
1,1,.1,.508,-.3175*
20,1,.1,.508,-.3175,.500282,-.405713,0.0*
1,1,.1,.500282,-.405713*
20,1,.1,.500282,-.405713,.477364,-.491246,0.0*
1,1,.1,.477364,-.491246*
20,1,.1,.477364,-.491246,.439941,-.5715,0.0*
1,1,.1,.439941,-.5715*
20,1,.1,.439941,-.5715,.389151,-.644036,0.0*
1,1,.1,.389151,-.644036*
20,1,.1,.389151,-.644036,.326536,-.706651,0.0*
1,1,.1,.326536,-.706651*
20,1,.1,.326536,-.706651,.254,-.757441,0.0*
1,1,.1,.254,-.757441*
20,1,.1,.254,-.757441,.173746,-.794864,0.0*
1,1,.1,.173746,-.794864*
20,1,.1,.173746,-.794864,.088213,-.817782,0.0*
1,1,.1,.088213,-.817782*
20,1,.1,.088213,-.817782,0.0,-.8255,0.0*
1,1,.1,0.0,-.8255*
20,1,.1,0.0,-.8255,-.088213,-.817782,0.0*
1,1,.1,-.088213,-.817782*
20,1,.1,-.088213,-.817782,-.173746,-.794864,0.0*
1,1,.1,-.173746,-.794864*
20,1,.1,-.173746,-.794864,-.254,-.757441,0.0*
1,1,.1,-.254,-.757441*
20,1,.1,-.254,-.757441,-.326536,-.706651,0.0*
1,1,.1,-.326536,-.706651*
20,1,.1,-.326536,-.706651,-.389151,-.644036,0.0*
1,1,.1,-.389151,-.644036*
20,1,.1,-.389151,-.644036,-.439941,-.5715,0.0*
1,1,.1,-.439941,-.5715*
20,1,.1,-.439941,-.5715,-.477364,-.491246,0.0*
1,1,.1,-.477364,-.491246*
20,1,.1,-.477364,-.491246,-.500282,-.405713,0.0*
1,1,.1,-.500282,-.405713*
20,1,.1,-.500282,-.405713,-.508,-.3175,0.0*
1,1,.1,-.508,-.3175*
20,1,.1,-.508,-.3175,-.508,.3175,0.0*
1,1,.1,-.508,.3175*
%
%ADD12MACRO12*%
%AMMACRO11*
1,1,.1,.635,0.0*
20,1,.1,.635,0.0,.3175,.549926,0.0*
1,1,.1,.3175,.549926*
20,1,.1,.3175,.549926,-.3175,.549926,0.0*
1,1,.1,-.3175,.549926*
20,1,.1,-.3175,.549926,-.635,0.0,0.0*
1,1,.1,-.635,0.0*
20,1,.1,-.635,0.0,-.3175,-.549926,0.0*
1,1,.1,-.3175,-.549926*
20,1,.1,-.3175,-.549926,.3175,-.549926,0.0*
1,1,.1,.3175,-.549926*
20,1,.1,.3175,-.549926,.635,0.0,0.0*
1,1,.1,.635,0.0*
%
%ADD11MACRO11*%
%AMMACRO10*
1,1,.1,-.666,-.952*
20,1,.1,-.666,-.952,.667,.953,0.0*
1,1,.1,.667,.953*
1,1,.1,-.666,.953*
20,1,.1,-.666,.953,.667,-.952,0.0*
1,1,.1,.667,-.952*
%
%ADD10MACRO10*%
%ADD14C,.1*%
G75*
%LPD*%
G75*
G54D10*
X500000Y500000D03*
Y6500000D03*
X9500000Y500000D03*
Y6500000D03*
X11962900Y145900D03*
G54D11*
X952500Y1206500D03*
Y1460500D03*
X1016000Y2540000D03*
Y2286000D03*
X500000Y3492000D03*
Y3746000D03*
Y4000000D03*
X1306000Y4560000D03*
X1560000D03*
X2286000Y4318000D03*
Y4572000D03*
Y4826000D03*
Y5080000D03*
X3429000Y3683000D03*
X3048000Y4318000D03*
Y4572000D03*
Y4826000D03*
Y5080000D03*
X3683000Y3937000D03*
X3937000Y3683000D03*
X4600000Y4268000D03*
Y4522000D03*
Y4776000D03*
Y5030000D03*
X5270000Y1180000D03*
Y1434000D03*
X5280000Y2504000D03*
Y2250000D03*
X5362000Y4268000D03*
Y4522000D03*
Y4776000D03*
Y5030000D03*
X6050000Y3038000D03*
Y3292000D03*
Y3546000D03*
Y3800000D03*
X6812000Y3038000D03*
Y3292000D03*
Y3546000D03*
Y3800000D03*
X7630000Y5644000D03*
Y5390000D03*
X8170000Y3028000D03*
Y3282000D03*
Y3536000D03*
Y3790000D03*
X8932000Y3028000D03*
Y3282000D03*
Y3536000D03*
Y3790000D03*
X9500000Y3754000D03*
Y3500000D03*
X11962900Y1003100D03*
G54D12*
X1254000Y3730000D03*
X2270000D03*
X2140000Y5720000D03*
X3156000D03*
X3760000Y4710000D03*
Y5726000D03*
X4380000Y2670000D03*
Y3686000D03*
X4560000Y5700000D03*
X5576000D03*
X6794500Y1143000D03*
Y2159000D03*
X7510000Y2980000D03*
Y3996000D03*
X8318500Y1143000D03*
Y2159000D03*
Y4445000D03*
Y5461000D03*
X8953500Y4445000D03*
Y5461000D03*
X11962900Y717400D03*
G54D13*
X2960000Y1420000D03*
X3214000D03*
X3468000D03*
X2940000Y2310000D03*
X3194000D03*
X3448000D03*
X11962900Y431600D03*
G54D14*
G01X0Y0D02*
Y7000000D01*
X10000000D01*
Y0D01*
X0D01*
G01X11760000Y3000D02*
Y2050000D01*
X13997000D01*
Y3000D01*
X11760000D01*
G01Y288800D02*
X13997000D01*
G01X11760000Y860300D02*
X13997000D01*
G01X11760000Y574500D02*
X13997000D01*
G01X11760000Y1400000D02*
X13997000D01*
G01X11760000Y1273000D02*
X13997000D01*
G01X11760000Y1146000D02*
X13997000D01*
G01X12493300Y126800D02*
X12497400Y119400D01*
X12502800Y115200D01*
X12508900Y114100D01*
X12514300Y115200D01*
X12519700Y120400D01*
X12523100Y126800D01*
X12523800Y133100D01*
X12522400Y140600D01*
X12517700Y145800D01*
X12512900Y148000D01*
X12506800D01*
G01X12512900D02*
X12517000Y151100D01*
X12520400Y156400D01*
X12521700Y162800D01*
X12520400Y169100D01*
X12517000Y174400D01*
X12510900Y177600D01*
X12504800Y176500D01*
X12498700Y172300D01*
G01X12564000Y112000D02*
X12562600Y113000D01*
Y115200D01*
X12564000Y116200D01*
X12565400Y115200D01*
Y113000D01*
X12564000Y112000D01*
G01X12619800Y114100D02*
Y177600D01*
X12611700Y164900D01*
G01Y114100D02*
X12627900D01*
G01X12674200D02*
X12675600Y127900D01*
X12677600Y139500D01*
X12680300Y150100D01*
X12683700Y161700D01*
X12689100Y177600D01*
X12662100D01*
G01X12716500Y123600D02*
X12720600Y118300D01*
X12725300Y115200D01*
X12731400Y114100D01*
X12737500Y116200D01*
X12742200Y120400D01*
X12745600Y127900D01*
X12746300Y136300D01*
X12744900Y144800D01*
X12741500Y150100D01*
X12736800Y154300D01*
X12732100Y155400D01*
X12727300Y154300D01*
X12721300Y150100D01*
X12723300Y177600D01*
X12741500D01*
G01X12165800Y1273000D02*
Y3000D01*
G01X12508200Y1034900D02*
X12502800Y1032800D01*
X12498700Y1027500D01*
X12496000Y1021100D01*
X12494000Y1012700D01*
X12493300Y1003100D01*
X12494000Y993600D01*
X12496000Y985200D01*
X12498700Y978800D01*
X12502800Y973500D01*
X12508200Y971400D01*
X12513600Y973500D01*
X12517700Y978800D01*
X12520400Y985200D01*
X12522400Y993600D01*
X12523100Y1003100D01*
X12522400Y1012700D01*
X12520400Y1021100D01*
X12517700Y1027500D01*
X12513600Y1032800D01*
X12508200Y1034900D01*
G01X12564000Y969300D02*
X12562600Y970300D01*
Y972500D01*
X12564000Y973500D01*
X12565400Y972500D01*
Y970300D01*
X12564000Y969300D01*
G01X12608300Y978800D02*
X12613000Y973500D01*
X12618400Y971400D01*
X12623900Y973500D01*
X12628600Y979900D01*
X12632000Y989400D01*
X12633300Y998900D01*
Y1010600D01*
X12632000Y1020100D01*
X12628600Y1028500D01*
X12624500Y1032800D01*
X12619800Y1034900D01*
X12614400Y1032800D01*
X12610300Y1028500D01*
X12607600Y1022200D01*
X12606300Y1013700D01*
X12607600Y1006300D01*
X12611000Y998900D01*
X12615100Y994700D01*
X12619800Y993600D01*
X12625200Y995700D01*
X12629300Y1001000D01*
X12633300Y1010600D01*
G01X12675600Y971400D02*
Y1034900D01*
X12667500Y1022200D01*
G01Y971400D02*
X12683700D01*
G01X12739500D02*
Y1034900D01*
X12714500Y989400D01*
X12748300D01*
G01X12508200Y685600D02*
Y749100D01*
X12500100Y736400D01*
G01Y685600D02*
X12516300D01*
G01X12564000Y683500D02*
X12562600Y684500D01*
Y686700D01*
X12564000Y687700D01*
X12565400Y686700D01*
Y684500D01*
X12564000Y683500D01*
G01X12619800Y749100D02*
X12614400Y747000D01*
X12610300Y741700D01*
X12607600Y735300D01*
X12605600Y726900D01*
X12604900Y717300D01*
X12605600Y707800D01*
X12607600Y699400D01*
X12610300Y693000D01*
X12614400Y687700D01*
X12619800Y685600D01*
X12625200Y687700D01*
X12629300Y693000D01*
X12632000Y699400D01*
X12634000Y707800D01*
X12634700Y717300D01*
X12634000Y726900D01*
X12632000Y735300D01*
X12629300Y741700D01*
X12625200Y747000D01*
X12619800Y749100D01*
G01X12662700Y712100D02*
X12667500Y719500D01*
X12671500Y723700D01*
X12677000Y725800D01*
X12681700Y723700D01*
X12685100Y719500D01*
X12687800Y713100D01*
X12688500Y705700D01*
X12687800Y699400D01*
X12685100Y693000D01*
X12681000Y687700D01*
X12676300Y685600D01*
X12670900Y687700D01*
X12666100Y694100D01*
X12663400Y703600D01*
X12662700Y714200D01*
X12664100Y727900D01*
X12666100Y735300D01*
X12669500Y742700D01*
X12674200Y748000D01*
X12679000Y749100D01*
X12683700Y747000D01*
X12687100Y741700D01*
G01X12730000Y685600D02*
X12731400Y699400D01*
X12733400Y711000D01*
X12736100Y721600D01*
X12739500Y733200D01*
X12744900Y749100D01*
X12717900D01*
G01X12508200Y399900D02*
Y463400D01*
X12500100Y450700D01*
G01Y399900D02*
X12516300D01*
G01X12564000Y397800D02*
X12562600Y398800D01*
Y401000D01*
X12564000Y402000D01*
X12565400Y401000D01*
Y398800D01*
X12564000Y397800D01*
G01X12604900Y412600D02*
X12609000Y405200D01*
X12614400Y401000D01*
X12620500Y399900D01*
X12625900Y401000D01*
X12631300Y406200D01*
X12634700Y412600D01*
X12635400Y418900D01*
X12634000Y426400D01*
X12629300Y431600D01*
X12624500Y433800D01*
X12618400D01*
G01X12624500D02*
X12628600Y436900D01*
X12632000Y442200D01*
X12633300Y448600D01*
X12632000Y454900D01*
X12628600Y460200D01*
X12622500Y463400D01*
X12616400Y462300D01*
X12610300Y458100D01*
G01X12674200Y399900D02*
X12675600Y413700D01*
X12677600Y425300D01*
X12680300Y435900D01*
X12683700Y447500D01*
X12689100Y463400D01*
X12662100D01*
G01X12718500Y452800D02*
X12722600Y459200D01*
X12727300Y462300D01*
X12732800Y463400D01*
X12739500Y461300D01*
X12744300Y456000D01*
X12745600Y449600D01*
X12744900Y443300D01*
X12742200Y438000D01*
X12728700Y427400D01*
X12722600Y420000D01*
X12718500Y409400D01*
X12717200Y399900D01*
X12745600D01*
G01X12108300Y1304800D02*
X12125200Y1368300D01*
X12142100Y1304800D01*
G01X12136000Y1327000D02*
X12114400D01*
G01X12167500Y1368300D02*
Y1304800D01*
X12194500D01*
G01X12223300Y1368300D02*
Y1304800D01*
X12250300D01*
G01X12333500Y1368300D02*
Y1322800D01*
X12336200Y1313300D01*
X12341600Y1306900D01*
X12348400Y1304800D01*
X12355200Y1306900D01*
X12360600Y1313300D01*
X12363300Y1322800D01*
Y1368300D01*
G01X12388600Y1304800D02*
Y1368300D01*
X12419800Y1304800D01*
Y1368300D01*
G01X12451900D02*
X12468100D01*
G01X12460000D02*
Y1304800D01*
G01X12451900D02*
X12468100D01*
G01X12515800Y1368300D02*
Y1304800D01*
G01X12500200Y1368300D02*
X12531400D01*
G01X12557400Y1313300D02*
X12562800Y1308000D01*
X12568900Y1304800D01*
X12574300D01*
X12579700Y1308000D01*
X12583800Y1313300D01*
X12585800Y1320700D01*
X12584500Y1328100D01*
X12581100Y1334400D01*
X12575000Y1338700D01*
X12566900Y1340800D01*
X12562100Y1345000D01*
X12560100Y1352400D01*
X12561500Y1359800D01*
X12564800Y1365100D01*
X12569600Y1368300D01*
X12574300D01*
X12579000Y1366200D01*
X12583100Y1360900D01*
G01X12666300Y1304800D02*
X12683200Y1368300D01*
X12700100Y1304800D01*
G01X12694000Y1327000D02*
X12672400D01*
G01X12725500Y1304800D02*
Y1368300D01*
X12742400D01*
X12747800Y1365100D01*
X12751200Y1360900D01*
X12752500Y1352400D01*
X12751200Y1344000D01*
X12747100Y1338700D01*
X12742400Y1335500D01*
X12725500D01*
G01X12742400D02*
X12752500Y1304800D01*
G01X12808300D02*
X12781300D01*
Y1368300D01*
X12808300D01*
G01X12797500Y1337600D02*
X12781300D01*
G01X12898300Y1368300D02*
X12914500D01*
G01X12906400D02*
Y1304800D01*
G01X12898300D02*
X12914500D01*
G01X12946600D02*
Y1368300D01*
X12977800Y1304800D01*
Y1368300D01*
G01X13056200Y1304800D02*
Y1368300D01*
X13073800Y1315400D01*
X13091400Y1368300D01*
Y1304800D01*
G01X13121500Y1368300D02*
X13137700D01*
G01X13129600D02*
Y1304800D01*
G01X13121500D02*
X13137700D01*
G01X13171900Y1368300D02*
Y1304800D01*
X13198900D01*
G01X13227700Y1368300D02*
Y1304800D01*
X13254700D01*
G01X13288900Y1368300D02*
X13305100D01*
G01X13297000D02*
Y1304800D01*
G01X13288900D02*
X13305100D01*
G01X13335200D02*
Y1368300D01*
X13352800Y1315400D01*
X13370400Y1368300D01*
Y1304800D01*
G01X13422100D02*
X13395100D01*
Y1368300D01*
X13422100D01*
G01X13411300Y1337600D02*
X13395100D01*
G01X13464400Y1368300D02*
Y1304800D01*
G01X13448800Y1368300D02*
X13480000D01*
G01X13533700Y1304800D02*
X13506700D01*
Y1368300D01*
X13533700D01*
G01X13522900Y1337600D02*
X13506700D01*
G01X13562500Y1304800D02*
Y1368300D01*
X13579400D01*
X13584800Y1365100D01*
X13588200Y1360900D01*
X13589500Y1352400D01*
X13588200Y1344000D01*
X13584100Y1338700D01*
X13579400Y1335500D01*
X13562500D01*
G01X13579400D02*
X13589500Y1304800D01*
G01X13617600Y1313300D02*
X13623000Y1308000D01*
X13629100Y1304800D01*
X13634500D01*
X13639900Y1308000D01*
X13644000Y1313300D01*
X13646000Y1320700D01*
X13644700Y1328100D01*
X13641300Y1334400D01*
X13635200Y1338700D01*
X13627100Y1340800D01*
X13622300Y1345000D01*
X13620300Y1352400D01*
X13621700Y1359800D01*
X13625000Y1365100D01*
X13629800Y1368300D01*
X13634500D01*
X13639200Y1366200D01*
X13643300Y1360900D01*
G01X11810500Y1177800D02*
Y1241300D01*
X11836300D01*
G01X11826800Y1210600D02*
X11810500D01*
G01X11871100Y1241300D02*
X11887300D01*
G01X11879200D02*
Y1177800D01*
G01X11871100D02*
X11887300D01*
G01X11939100Y1209500D02*
X11952600D01*
Y1190500D01*
X11948500Y1184100D01*
X11943800Y1179900D01*
X11937000Y1177800D01*
X11930300Y1179900D01*
X11925500Y1184100D01*
X11921500Y1190500D01*
X11918800Y1197900D01*
X11917400Y1206400D01*
Y1213800D01*
X11918800Y1220100D01*
X11921500Y1227500D01*
X11925500Y1233900D01*
X11929600Y1238100D01*
X11935000Y1241300D01*
X11939700D01*
X11945100Y1239200D01*
X11949200Y1234900D01*
G01X11975900Y1241300D02*
Y1195800D01*
X11978600Y1186300D01*
X11984000Y1179900D01*
X11990800Y1177800D01*
X11997600Y1179900D01*
X12003000Y1186300D01*
X12005700Y1195800D01*
Y1241300D01*
G01X12033100Y1177800D02*
Y1241300D01*
X12050000D01*
X12055400Y1238100D01*
X12058800Y1233900D01*
X12060100Y1225400D01*
X12058800Y1217000D01*
X12054700Y1211700D01*
X12050000Y1208500D01*
X12033100D01*
G01X12050000D02*
X12060100Y1177800D01*
G01X12115900D02*
X12088900D01*
Y1241300D01*
X12115900D01*
G01X12105100Y1210600D02*
X12088900D01*
G01X12272100Y1177800D02*
Y1241300D01*
X12297900D01*
G01X12288400Y1210600D02*
X12272100D01*
G01X12332700Y1241300D02*
X12348900D01*
G01X12340800D02*
Y1177800D01*
G01X12332700D02*
X12348900D01*
G01X12381000D02*
Y1241300D01*
X12412200Y1177800D01*
Y1241300D01*
G01X12444300D02*
X12460500D01*
G01X12452400D02*
Y1177800D01*
G01X12444300D02*
X12460500D01*
G01X12494000Y1186300D02*
X12499400Y1181000D01*
X12505500Y1177800D01*
X12510900D01*
X12516300Y1181000D01*
X12520400Y1186300D01*
X12522400Y1193700D01*
X12521100Y1201100D01*
X12517700Y1207400D01*
X12511600Y1211700D01*
X12503500Y1213800D01*
X12498700Y1218000D01*
X12496700Y1225400D01*
X12498100Y1232800D01*
X12501400Y1238100D01*
X12506200Y1241300D01*
X12510900D01*
X12515600Y1239200D01*
X12519700Y1233900D01*
G01X12549800Y1177800D02*
Y1241300D01*
G01X12578200D02*
Y1177800D01*
G01Y1209500D02*
X12549800D01*
G01X12633300Y1177800D02*
X12606300D01*
Y1241300D01*
X12633300D01*
G01X12622500Y1210600D02*
X12606300D01*
G01X12660700Y1177800D02*
Y1241300D01*
X12674200D01*
X12679700Y1238100D01*
X12683700Y1233900D01*
X12687100Y1227500D01*
X12689800Y1220100D01*
X12690500Y1209500D01*
X12689800Y1199000D01*
X12687100Y1191600D01*
X12683700Y1185200D01*
X12679700Y1181000D01*
X12674200Y1177800D01*
X12660700D01*
G01X12711100Y1156600D02*
X12751700D01*
G01X12773000Y1186300D02*
X12778400Y1181000D01*
X12784500Y1177800D01*
X12789900D01*
X12795300Y1181000D01*
X12799400Y1186300D01*
X12801400Y1193700D01*
X12800100Y1201100D01*
X12796700Y1207400D01*
X12790600Y1211700D01*
X12782500Y1213800D01*
X12777700Y1218000D01*
X12775700Y1225400D01*
X12777100Y1232800D01*
X12780400Y1238100D01*
X12785200Y1241300D01*
X12789900D01*
X12794600Y1239200D01*
X12798700Y1233900D01*
G01X12834900Y1241300D02*
X12851100D01*
G01X12843000D02*
Y1177800D01*
G01X12834900D02*
X12851100D01*
G01X12885900Y1241300D02*
X12911700D01*
X12885900Y1177800D01*
X12911700D01*
G01X12968100D02*
X12941100D01*
Y1241300D01*
X12968100D01*
G01X12957300Y1210600D02*
X12941100D01*
G01X12166100Y1954800D02*
Y2018300D01*
X12179600D01*
X12185100Y2015100D01*
X12189100Y2010900D01*
X12192500Y2004500D01*
X12195200Y1997100D01*
X12195900Y1986500D01*
X12195200Y1976000D01*
X12192500Y1968600D01*
X12189100Y1962200D01*
X12185100Y1958000D01*
X12179600Y1954800D01*
X12166100D01*
G01X12223300D02*
Y2018300D01*
X12240200D01*
X12245600Y2015100D01*
X12249000Y2010900D01*
X12250300Y2002400D01*
X12249000Y1994000D01*
X12244900Y1988700D01*
X12240200Y1985500D01*
X12223300D01*
G01X12240200D02*
X12250300Y1954800D01*
G01X12284500Y2018300D02*
X12300700D01*
G01X12292600D02*
Y1954800D01*
G01X12284500D02*
X12300700D01*
G01X12334900Y2018300D02*
Y1954800D01*
X12361900D01*
G01X12390700Y2018300D02*
Y1954800D01*
X12417700D01*
G01X12530700Y2013000D02*
X12526600Y2016200D01*
X12521900Y2018300D01*
X12516500D01*
X12510400Y2015100D01*
X12505700Y2009800D01*
X12502300Y2003500D01*
X12499600Y1992900D01*
X12498900Y1983400D01*
X12500200Y1973800D01*
X12502300Y1967500D01*
X12506300Y1961100D01*
X12511100Y1956900D01*
X12515800Y1954800D01*
X12520500D01*
X12525300Y1956900D01*
X12529300Y1960100D01*
X12532700Y1964300D01*
G01X12557400Y1954800D02*
Y2018300D01*
G01X12585800D02*
Y1954800D01*
G01Y1986500D02*
X12557400D01*
G01X12610500Y1954800D02*
X12627400Y2018300D01*
X12644300Y1954800D01*
G01X12638200Y1977000D02*
X12616600D01*
G01X12669700Y1954800D02*
Y2018300D01*
X12686600D01*
X12692000Y2015100D01*
X12695400Y2010900D01*
X12696700Y2002400D01*
X12695400Y1994000D01*
X12691300Y1988700D01*
X12686600Y1985500D01*
X12669700D01*
G01X12686600D02*
X12696700Y1954800D01*
G01X12739000Y2018300D02*
Y1954800D01*
G01X12723400Y2018300D02*
X12754600D01*
G01X12794800Y1952700D02*
X12793400Y1953700D01*
Y1955900D01*
X12794800Y1956900D01*
X12796200Y1955900D01*
Y1953700D01*
X12794800Y1952700D01*
G01Y1981300D02*
X12793400Y1982300D01*
Y1984400D01*
X12794800Y1985500D01*
X12796200Y1984400D01*
Y1982300D01*
X12794800Y1981300D01*
G01X12906400Y2018300D02*
Y1954800D01*
G01X12890800Y2018300D02*
X12922000D01*
G01X12962200Y1954800D02*
X12956800Y1955900D01*
X12952100Y1960100D01*
X12948000Y1966400D01*
X12945300Y1973800D01*
X12943900Y1982300D01*
Y1990800D01*
X12945300Y1999300D01*
X12948000Y2006700D01*
X12952100Y2013000D01*
X12956800Y2017200D01*
X12962200Y2018300D01*
X12967600Y2017200D01*
X12972300Y2013000D01*
X12976400Y2006700D01*
X12979100Y1999300D01*
X12980500Y1990800D01*
Y1982300D01*
X12979100Y1973800D01*
X12976400Y1966400D01*
X12972300Y1960100D01*
X12967600Y1955900D01*
X12962200Y1954800D01*
G01X13004500D02*
Y2018300D01*
X13020700D01*
X13026100Y2015100D01*
X13030200Y2007700D01*
X13031500Y1999300D01*
X13030200Y1990800D01*
X13026800Y1984400D01*
X13020700Y1981300D01*
X13004500D01*
G01X13129600Y2018300D02*
Y1954800D01*
G01X13120100Y1997100D02*
X13139100D01*
G01X13185400Y1954800D02*
X13181300Y1955900D01*
X13177300Y1960100D01*
X13174600Y1967500D01*
X13173200Y1976000D01*
X13174600Y1984400D01*
X13177300Y1991800D01*
X13181300Y1996100D01*
X13185400Y1997100D01*
X13189500Y1996100D01*
X13193500Y1991800D01*
X13196200Y1984400D01*
X13196900Y1976000D01*
X13196200Y1967500D01*
X13193500Y1960100D01*
X13189500Y1955900D01*
X13185400Y1954800D01*
G01X13302400Y1988700D02*
X13305100Y1991800D01*
X13307100Y1997100D01*
X13308500Y2004500D01*
X13307100Y2010900D01*
X13304400Y2015100D01*
X13299700Y2018300D01*
X13281400D01*
Y1954800D01*
X13303800D01*
X13308500Y1959000D01*
X13311200Y1965400D01*
X13312600Y1972800D01*
X13311200Y1980200D01*
X13307100Y1986500D01*
X13302400Y1988700D01*
X13281400D01*
G01X13352800Y1954800D02*
X13347400Y1955900D01*
X13342700Y1960100D01*
X13338600Y1966400D01*
X13335900Y1973800D01*
X13334500Y1982300D01*
Y1990800D01*
X13335900Y1999300D01*
X13338600Y2006700D01*
X13342700Y2013000D01*
X13347400Y2017200D01*
X13352800Y2018300D01*
X13358200Y2017200D01*
X13362900Y2013000D01*
X13367000Y2006700D01*
X13369700Y1999300D01*
X13371100Y1990800D01*
Y1982300D01*
X13369700Y1973800D01*
X13367000Y1966400D01*
X13362900Y1960100D01*
X13358200Y1955900D01*
X13352800Y1954800D01*
G01X13408600Y2018300D02*
Y1954800D01*
G01X13393000Y2018300D02*
X13424200D01*
G01X13464400D02*
Y1954800D01*
G01X13448800Y2018300D02*
X13480000D01*
G01X13520200Y1954800D02*
X13514800Y1955900D01*
X13510100Y1960100D01*
X13506000Y1966400D01*
X13503300Y1973800D01*
X13501900Y1982300D01*
Y1990800D01*
X13503300Y1999300D01*
X13506000Y2006700D01*
X13510100Y2013000D01*
X13514800Y2017200D01*
X13520200Y2018300D01*
X13525600Y2017200D01*
X13530300Y2013000D01*
X13534400Y2006700D01*
X13537100Y1999300D01*
X13538500Y1990800D01*
Y1982300D01*
X13537100Y1973800D01*
X13534400Y1966400D01*
X13530300Y1960100D01*
X13525600Y1955900D01*
X13520200Y1954800D01*
G01X13558400D02*
Y2018300D01*
X13576000Y1965400D01*
X13593600Y2018300D01*
Y1954800D01*
G01X13093700Y114100D02*
Y177600D01*
X13124900Y114100D01*
Y177600D01*
G01X13165100Y114100D02*
X13159700Y115200D01*
X13155000Y119400D01*
X13150900Y125700D01*
X13148200Y133100D01*
X13146800Y141600D01*
Y150100D01*
X13148200Y158600D01*
X13150900Y166000D01*
X13155000Y172300D01*
X13159700Y176500D01*
X13165100Y177600D01*
X13170500Y176500D01*
X13175200Y172300D01*
X13179300Y166000D01*
X13182000Y158600D01*
X13183400Y150100D01*
Y141600D01*
X13182000Y133100D01*
X13179300Y125700D01*
X13175200Y119400D01*
X13170500Y115200D01*
X13165100Y114100D01*
G01X13205300D02*
Y177600D01*
X13236500Y114100D01*
Y177600D01*
G01X13267900Y135300D02*
X13285500D01*
G01X13319000Y114100D02*
Y177600D01*
X13335200D01*
X13340600Y174400D01*
X13344700Y167000D01*
X13346000Y158600D01*
X13344700Y150100D01*
X13341300Y143700D01*
X13335200Y140600D01*
X13319000D01*
G01X13374800Y177600D02*
Y114100D01*
X13401800D01*
G01X13427200D02*
X13444100Y177600D01*
X13461000Y114100D01*
G01X13454900Y136300D02*
X13433300D01*
G01X13499900Y177600D02*
Y114100D01*
G01X13484300Y177600D02*
X13515500D01*
G01X13569200Y114100D02*
X13542200D01*
Y177600D01*
X13569200D01*
G01X13558400Y146900D02*
X13542200D01*
G01X13596600Y114100D02*
Y177600D01*
X13610100D01*
X13615600Y174400D01*
X13619600Y170200D01*
X13623000Y163800D01*
X13625700Y156400D01*
X13626400Y145800D01*
X13625700Y135300D01*
X13623000Y127900D01*
X13619600Y121500D01*
X13615600Y117300D01*
X13610100Y114100D01*
X13596600D01*
G01X13073800Y1273000D02*
Y3000D01*
G01X13207400Y971400D02*
Y1034900D01*
X13223600D01*
X13229000Y1031700D01*
X13233100Y1024300D01*
X13234400Y1015900D01*
X13233100Y1007400D01*
X13229700Y1001000D01*
X13223600Y997900D01*
X13207400D01*
G01X13263200Y1034900D02*
Y971400D01*
X13290200D01*
G01X13315600D02*
X13332500Y1034900D01*
X13349400Y971400D01*
G01X13343300Y993600D02*
X13321700D01*
G01X13388300Y1034900D02*
Y971400D01*
G01X13372700Y1034900D02*
X13403900D01*
G01X13457600Y971400D02*
X13430600D01*
Y1034900D01*
X13457600D01*
G01X13446800Y1004200D02*
X13430600D01*
G01X13485000Y971400D02*
Y1034900D01*
X13498500D01*
X13504000Y1031700D01*
X13508000Y1027500D01*
X13511400Y1021100D01*
X13514100Y1013700D01*
X13514800Y1003100D01*
X13514100Y992600D01*
X13511400Y985200D01*
X13508000Y978800D01*
X13504000Y974600D01*
X13498500Y971400D01*
X13485000D01*
G01X13207400Y685600D02*
Y749100D01*
X13223600D01*
X13229000Y745900D01*
X13233100Y738500D01*
X13234400Y730100D01*
X13233100Y721600D01*
X13229700Y715200D01*
X13223600Y712100D01*
X13207400D01*
G01X13263200Y749100D02*
Y685600D01*
X13290200D01*
G01X13315600D02*
X13332500Y749100D01*
X13349400Y685600D01*
G01X13343300Y707800D02*
X13321700D01*
G01X13388300Y749100D02*
Y685600D01*
G01X13372700Y749100D02*
X13403900D01*
G01X13457600Y685600D02*
X13430600D01*
Y749100D01*
X13457600D01*
G01X13446800Y718400D02*
X13430600D01*
G01X13485000Y685600D02*
Y749100D01*
X13498500D01*
X13504000Y745900D01*
X13508000Y741700D01*
X13511400Y735300D01*
X13514100Y727900D01*
X13514800Y717300D01*
X13514100Y706800D01*
X13511400Y699400D01*
X13508000Y693000D01*
X13504000Y688800D01*
X13498500Y685600D01*
X13485000D01*
G01X13207400Y399900D02*
Y463400D01*
X13223600D01*
X13229000Y460200D01*
X13233100Y452800D01*
X13234400Y444400D01*
X13233100Y435900D01*
X13229700Y429500D01*
X13223600Y426400D01*
X13207400D01*
G01X13263200Y463400D02*
Y399900D01*
X13290200D01*
G01X13315600D02*
X13332500Y463400D01*
X13349400Y399900D01*
G01X13343300Y422100D02*
X13321700D01*
G01X13388300Y463400D02*
Y399900D01*
G01X13372700Y463400D02*
X13403900D01*
G01X13457600Y399900D02*
X13430600D01*
Y463400D01*
X13457600D01*
G01X13446800Y432700D02*
X13430600D01*
G01X13485000Y399900D02*
Y463400D01*
X13498500D01*
X13504000Y460200D01*
X13508000Y456000D01*
X13511400Y449600D01*
X13514100Y442200D01*
X13514800Y431600D01*
X13514100Y421100D01*
X13511400Y413700D01*
X13508000Y407300D01*
X13504000Y403100D01*
X13498500Y399900D01*
X13485000D01*
G01X13207400Y1177800D02*
Y1241300D01*
X13223600D01*
X13229000Y1238100D01*
X13233100Y1230700D01*
X13234400Y1222300D01*
X13233100Y1213800D01*
X13229700Y1207400D01*
X13223600Y1204300D01*
X13207400D01*
G01X13263200Y1241300D02*
Y1177800D01*
X13290200D01*
G01X13315600D02*
X13332500Y1241300D01*
X13349400Y1177800D01*
G01X13343300Y1200000D02*
X13321700D01*
G01X13388300Y1241300D02*
Y1177800D01*
G01X13372700Y1241300D02*
X13403900D01*
G01X13457600Y1177800D02*
X13430600D01*
Y1241300D01*
X13457600D01*
G01X13446800Y1210600D02*
X13430600D01*
G01X13485000Y1177800D02*
Y1241300D01*
X13498500D01*
X13504000Y1238100D01*
X13508000Y1233900D01*
X13511400Y1227500D01*
X13514100Y1220100D01*
X13514800Y1209500D01*
X13514100Y1199000D01*
X13511400Y1191600D01*
X13508000Y1185200D01*
X13504000Y1181000D01*
X13498500Y1177800D01*
X13485000D01*
G01X13830100Y114100D02*
Y177600D01*
X13805100Y132100D01*
X13838900D01*
G01X13647000Y1273000D02*
Y3000D01*
G01X13779200Y980900D02*
X13783300Y975600D01*
X13788000Y972500D01*
X13794100Y971400D01*
X13800200Y973500D01*
X13804900Y977700D01*
X13808300Y985200D01*
X13809000Y993600D01*
X13807600Y1002100D01*
X13804200Y1007400D01*
X13799500Y1011600D01*
X13794800Y1012700D01*
X13790000Y1011600D01*
X13784000Y1007400D01*
X13786000Y1034900D01*
X13804200D01*
G01X13837000Y1024300D02*
X13841100Y1030700D01*
X13845800Y1033800D01*
X13851300Y1034900D01*
X13858000Y1032800D01*
X13862800Y1027500D01*
X13864100Y1021100D01*
X13863400Y1014800D01*
X13860700Y1009500D01*
X13847200Y998900D01*
X13841100Y991500D01*
X13837000Y980900D01*
X13835700Y971400D01*
X13864100D01*
G01X13781200Y738500D02*
X13785300Y744900D01*
X13790000Y748000D01*
X13795500Y749100D01*
X13802200Y747000D01*
X13807000Y741700D01*
X13808300Y735300D01*
X13807600Y729000D01*
X13804900Y723700D01*
X13791400Y713100D01*
X13785300Y705700D01*
X13781200Y695100D01*
X13779900Y685600D01*
X13808300D01*
G01X13849900Y749100D02*
X13844500Y747000D01*
X13840400Y741700D01*
X13837700Y735300D01*
X13835700Y726900D01*
X13835000Y717300D01*
X13835700Y707800D01*
X13837700Y699400D01*
X13840400Y693000D01*
X13844500Y687700D01*
X13849900Y685600D01*
X13855300Y687700D01*
X13859400Y693000D01*
X13862100Y699400D01*
X13864100Y707800D01*
X13864800Y717300D01*
X13864100Y726900D01*
X13862100Y735300D01*
X13859400Y741700D01*
X13855300Y747000D01*
X13849900Y749100D01*
G01X13809100Y426400D02*
X13813900Y433800D01*
X13817900Y438000D01*
X13823400Y440100D01*
X13828100Y438000D01*
X13831500Y433800D01*
X13834200Y427400D01*
X13834900Y420000D01*
X13834200Y413700D01*
X13831500Y407300D01*
X13827400Y402000D01*
X13822700Y399900D01*
X13817300Y402000D01*
X13812500Y408400D01*
X13809800Y417900D01*
X13809100Y428500D01*
X13810500Y442200D01*
X13812500Y449600D01*
X13815900Y457000D01*
X13820600Y462300D01*
X13825400Y463400D01*
X13830100Y461300D01*
X13833500Y456000D01*
G01X13766200Y1177800D02*
X13760800Y1178900D01*
X13756100Y1183100D01*
X13752000Y1189400D01*
X13749300Y1196800D01*
X13747900Y1205300D01*
Y1213800D01*
X13749300Y1222300D01*
X13752000Y1229700D01*
X13756100Y1236000D01*
X13760800Y1240200D01*
X13766200Y1241300D01*
X13771600Y1240200D01*
X13776300Y1236000D01*
X13780400Y1229700D01*
X13783100Y1222300D01*
X13784500Y1213800D01*
Y1205300D01*
X13783100Y1196800D01*
X13780400Y1189400D01*
X13776300Y1183100D01*
X13771600Y1178900D01*
X13766200Y1177800D01*
G01X13771600Y1194700D02*
X13779700Y1177800D01*
G01X13822000Y1241300D02*
Y1177800D01*
G01X13806400Y1241300D02*
X13837600D01*
G01X13877800Y1177800D02*
Y1206400D01*
X13864300Y1241300D01*
G01X13891300D02*
X13877800Y1206400D01*
M02*
