G04 ================== begin FILE IDENTIFICATION RECORD ==================*
G04 Layout Name:  C:/USERS/USER/DESKTOP/DA CONVERTOR/allegro/OSCILLATOR.brd*
G04 Film Name:    SilkT*
G04 File Format:  Gerber RS274X*
G04 File Origin:  Cadence Allegro 17.2-P019*
G04 Origin Date:  Thu Aug 01 11:18:08 2019*
G04 *
G04 Layer:  BOARD GEOMETRY/DIMENSION*
G04 Layer:  BOARD GEOMETRY/DESIGN_OUTLINE*
G04 Layer:  REF DES/SILKSCREEN_TOP*
G04 Layer:  PACKAGE GEOMETRY/SILKSCREEN_TOP*
G04 Layer:  BOARD GEOMETRY/SILKSCREEN_TOP*
G04 *
G04 Offset:    (0.000 0.000)*
G04 Mirror:    No*
G04 Mode:      Positive*
G04 Rotation:  0*
G04 FullContactRelief:  No*
G04 UndefLineWidth:     0.200*
G04 ================== end FILE IDENTIFICATION RECORD ====================*
%FSLAX25Y25*MOMM*%
%IR0*IPPOS*OFA0.00000B0.00000*MIA0B0*SFA1.00000B1.00000*%
%ADD10C,.5*%
%ADD11C,.203*%
%ADD12C,.2*%
G75*
%LPD*%
G75*
G54D10*
G01X3722700Y254000D02*
X3589300D01*
Y654000D01*
X3722700D01*
G01X3669300Y460700D02*
X3589300D01*
G01X3804500Y654000D02*
Y254000D01*
X3937900D01*
G01X4153100D02*
X4019700D01*
Y654000D01*
X4153100D01*
G01X4099700Y460700D02*
X4019700D01*
G01X4374900Y620700D02*
X4354900Y640700D01*
X4331600Y654000D01*
X4304900D01*
X4274900Y634000D01*
X4251600Y600700D01*
X4234900Y560700D01*
X4221600Y494000D01*
X4218300Y434000D01*
X4224900Y374000D01*
X4234900Y334000D01*
X4254900Y294000D01*
X4278300Y267300D01*
X4301600Y254000D01*
X4324900D01*
X4348300Y267300D01*
X4368300Y287300D01*
X4384900Y314000D01*
G01X4516800Y654000D02*
Y254000D01*
G01X4440100Y654000D02*
X4593500D01*
G01X4665300Y254000D02*
Y654000D01*
X4748700D01*
X4775300Y634000D01*
X4792000Y607300D01*
X4798700Y554000D01*
X4792000Y500700D01*
X4772000Y467300D01*
X4748700Y447300D01*
X4665300D01*
G01X4748700D02*
X4798700Y254000D01*
G01X4947200D02*
X4920500Y260700D01*
X4897200Y287300D01*
X4877200Y327300D01*
X4863900Y374000D01*
X4857200Y427300D01*
Y480700D01*
X4863900Y534000D01*
X4877200Y580700D01*
X4897200Y620700D01*
X4920500Y647300D01*
X4947200Y654000D01*
X4973900Y647300D01*
X4997200Y620700D01*
X5017200Y580700D01*
X5030500Y534000D01*
X5037200Y480700D01*
Y427300D01*
X5030500Y374000D01*
X5017200Y327300D01*
X4997200Y287300D01*
X4973900Y260700D01*
X4947200Y254000D01*
G01X5085700D02*
Y654000D01*
X5239100Y254000D01*
Y654000D01*
G01X5337600D02*
X5417600D01*
G01X5377600D02*
Y254000D01*
G01X5337600D02*
X5417600D01*
G01X5666100Y620700D02*
X5646100Y640700D01*
X5622800Y654000D01*
X5596100D01*
X5566100Y634000D01*
X5542800Y600700D01*
X5526100Y560700D01*
X5512800Y494000D01*
X5509500Y434000D01*
X5516100Y374000D01*
X5526100Y334000D01*
X5546100Y294000D01*
X5569500Y267300D01*
X5592800Y254000D01*
X5616100D01*
X5639500Y267300D01*
X5659500Y287300D01*
X5676100Y314000D01*
G01X6096500Y620700D02*
X6076500Y640700D01*
X6053200Y654000D01*
X6026500D01*
X5996500Y634000D01*
X5973200Y600700D01*
X5956500Y560700D01*
X5943200Y494000D01*
X5939900Y434000D01*
X5946500Y374000D01*
X5956500Y334000D01*
X5976500Y294000D01*
X5999900Y267300D01*
X6023200Y254000D01*
X6046500D01*
X6069900Y267300D01*
X6089900Y287300D01*
X6106500Y314000D01*
G01X6155100Y254000D02*
X6238400Y654000D01*
X6321700Y254000D01*
G01X6291700Y394000D02*
X6185100D01*
G01X6380300Y254000D02*
Y654000D01*
X6446900D01*
X6473600Y634000D01*
X6493600Y607300D01*
X6510300Y567300D01*
X6523600Y520700D01*
X6526900Y454000D01*
X6523600Y387300D01*
X6510300Y340700D01*
X6493600Y300700D01*
X6473600Y274000D01*
X6446900Y254000D01*
X6380300D01*
G01X3910000Y6350000D02*
X3883300Y6356700D01*
X3860000Y6383300D01*
X3840000Y6423300D01*
X3826700Y6470000D01*
X3820000Y6523300D01*
Y6576700D01*
X3826700Y6630000D01*
X3840000Y6676700D01*
X3860000Y6716700D01*
X3883300Y6743300D01*
X3910000Y6750000D01*
X3936700Y6743300D01*
X3960000Y6716700D01*
X3980000Y6676700D01*
X3993300Y6630000D01*
X4000000Y6576700D01*
Y6523300D01*
X3993300Y6470000D01*
X3980000Y6423300D01*
X3960000Y6383300D01*
X3936700Y6356700D01*
X3910000Y6350000D01*
G01X4055200Y6403300D02*
X4081900Y6370000D01*
X4111900Y6350000D01*
X4138500D01*
X4165200Y6370000D01*
X4185200Y6403300D01*
X4195200Y6450000D01*
X4188500Y6496700D01*
X4171900Y6536700D01*
X4141900Y6563300D01*
X4101900Y6576700D01*
X4078500Y6603300D01*
X4068500Y6650000D01*
X4075200Y6696700D01*
X4091900Y6730000D01*
X4115200Y6750000D01*
X4138500D01*
X4161900Y6736700D01*
X4181900Y6703300D01*
G01X4413700Y6716700D02*
X4393700Y6736700D01*
X4370400Y6750000D01*
X4343700D01*
X4313700Y6730000D01*
X4290400Y6696700D01*
X4273700Y6656700D01*
X4260400Y6590000D01*
X4257100Y6530000D01*
X4263700Y6470000D01*
X4273700Y6430000D01*
X4293700Y6390000D01*
X4317100Y6363300D01*
X4340400Y6350000D01*
X4363700D01*
X4387100Y6363300D01*
X4407100Y6383300D01*
X4423700Y6410000D01*
G01X4515600Y6750000D02*
X4595600D01*
G01X4555600D02*
Y6350000D01*
G01X4515600D02*
X4595600D01*
G01X4704100Y6750000D02*
Y6350000D01*
X4837500D01*
G01X4919300Y6750000D02*
Y6350000D01*
X5052700D01*
G01X5117900D02*
X5201200Y6750000D01*
X5284500Y6350000D01*
G01X5254500Y6490000D02*
X5147900D01*
G01X5416400Y6750000D02*
Y6350000D01*
G01X5339700Y6750000D02*
X5493100D01*
G01X5631600Y6350000D02*
X5604900Y6356700D01*
X5581600Y6383300D01*
X5561600Y6423300D01*
X5548300Y6470000D01*
X5541600Y6523300D01*
Y6576700D01*
X5548300Y6630000D01*
X5561600Y6676700D01*
X5581600Y6716700D01*
X5604900Y6743300D01*
X5631600Y6750000D01*
X5658300Y6743300D01*
X5681600Y6716700D01*
X5701600Y6676700D01*
X5714900Y6630000D01*
X5721600Y6576700D01*
Y6523300D01*
X5714900Y6470000D01*
X5701600Y6423300D01*
X5681600Y6383300D01*
X5658300Y6356700D01*
X5631600Y6350000D01*
G01X5780100D02*
Y6750000D01*
X5863500D01*
X5890100Y6730000D01*
X5906800Y6703300D01*
X5913500Y6650000D01*
X5906800Y6596700D01*
X5886800Y6563300D01*
X5863500Y6543300D01*
X5780100D01*
G01X5863500D02*
X5913500Y6350000D01*
G01X4764800Y8050000D02*
Y8450000D01*
X4724800Y8370000D01*
G01Y8050000D02*
X4804800D01*
G01X4980000Y8450000D02*
X4953300Y8436700D01*
X4933300Y8403300D01*
X4920000Y8363300D01*
X4910000Y8310000D01*
X4906700Y8250000D01*
X4910000Y8190000D01*
X4920000Y8136700D01*
X4933300Y8096700D01*
X4953300Y8063300D01*
X4980000Y8050000D01*
X5006700Y8063300D01*
X5026700Y8096700D01*
X5040000Y8136700D01*
X5050000Y8190000D01*
X5053300Y8250000D01*
X5050000Y8310000D01*
X5040000Y8363300D01*
X5026700Y8403300D01*
X5006700Y8436700D01*
X4980000Y8450000D01*
G01X5195200D02*
X5168500Y8436700D01*
X5148500Y8403300D01*
X5135200Y8363300D01*
X5125200Y8310000D01*
X5121900Y8250000D01*
X5125200Y8190000D01*
X5135200Y8136700D01*
X5148500Y8096700D01*
X5168500Y8063300D01*
X5195200Y8050000D01*
X5221900Y8063300D01*
X5241900Y8096700D01*
X5255200Y8136700D01*
X5265200Y8190000D01*
X5268500Y8250000D01*
X5265200Y8310000D01*
X5255200Y8363300D01*
X5241900Y8403300D01*
X5221900Y8436700D01*
X5195200Y8450000D01*
G01X11315700Y3540000D02*
X11322400Y3626700D01*
X11332400Y3700000D01*
X11345700Y3766700D01*
X11362400Y3840000D01*
X11389100Y3940000D01*
X11255700D01*
G01X11537600D02*
X11510900Y3926700D01*
X11490900Y3893300D01*
X11477600Y3853300D01*
X11467600Y3800000D01*
X11464300Y3740000D01*
X11467600Y3680000D01*
X11477600Y3626700D01*
X11490900Y3586700D01*
X11510900Y3553300D01*
X11537600Y3540000D01*
X11564300Y3553300D01*
X11584300Y3586700D01*
X11597600Y3626700D01*
X11607600Y3680000D01*
X11610900Y3740000D01*
X11607600Y3800000D01*
X11597600Y3853300D01*
X11584300Y3893300D01*
X11564300Y3926700D01*
X11537600Y3940000D01*
G54D11*
G01X2680600Y1712100D02*
Y1140600D01*
G01D02*
X3747400D01*
G01Y1712100D02*
X2680600D01*
G01Y1572400D02*
X3747400D01*
G01X2660600Y2602100D02*
Y2030600D01*
G01D02*
X3727400D01*
G01Y2602100D02*
X2660600D01*
G01Y2462400D02*
X3727400D01*
G01X3747400Y1140600D02*
Y1712100D01*
G01X3727400Y2030600D02*
Y2602100D01*
G54D12*
G01X0Y0D02*
Y7000000D01*
X10000000D01*
Y0D01*
X0D01*
G01Y7250000D02*
Y8500000D01*
G01X4339800Y8250000D02*
X0D01*
G01X400000Y8312500D02*
X0Y8250000D01*
X400000Y8187500D01*
Y8312500D01*
G01X1206500Y1333500D02*
G03I-254000J0D01*
G01X1270000Y2413000D02*
G03I-254000J0D01*
G01X373000Y4127000D02*
X627000D01*
Y3365000D01*
X373000D01*
Y4127000D01*
G01X641100Y3985700D02*
X646000Y3977900D01*
X651800Y3972600D01*
X658700Y3970000D01*
X666400Y3972600D01*
X672300Y3977900D01*
X678100Y3985700D01*
X680100Y3996200D01*
Y4048700D01*
G01X739300Y3970000D02*
Y4048700D01*
X727600Y4033000D01*
G01Y3970000D02*
X751000D01*
G01X1280600Y1606400D02*
X1271000Y1612800D01*
X1259700Y1617000D01*
X1246900D01*
X1232400Y1610600D01*
X1221100Y1600100D01*
X1213100Y1587400D01*
X1206600Y1566200D01*
X1205000Y1547100D01*
X1208300Y1528100D01*
X1213100Y1515400D01*
X1222700Y1502700D01*
X1234000Y1494200D01*
X1245200Y1490000D01*
X1256500D01*
X1267800Y1494200D01*
X1277400Y1500600D01*
X1285500Y1509000D01*
G01X1394100Y1490000D02*
Y1617000D01*
X1334500Y1526000D01*
X1415000D01*
G01X1350600Y2656400D02*
X1341000Y2662800D01*
X1329700Y2667000D01*
X1316900D01*
X1302400Y2660600D01*
X1291100Y2650100D01*
X1283100Y2637400D01*
X1276600Y2616200D01*
X1275000Y2597100D01*
X1278300Y2578100D01*
X1283100Y2565400D01*
X1292700Y2552700D01*
X1304000Y2544200D01*
X1315200Y2540000D01*
X1326500D01*
X1337800Y2544200D01*
X1347400Y2550600D01*
X1355500Y2559000D01*
G01X1409400Y2565400D02*
X1419000Y2550600D01*
X1431900Y2542100D01*
X1446400Y2540000D01*
X1459200Y2542100D01*
X1472100Y2552700D01*
X1480100Y2565400D01*
X1481700Y2578100D01*
X1478500Y2592900D01*
X1467300Y2603500D01*
X1456000Y2607700D01*
X1441500D01*
G01X1456000D02*
X1465700Y2614100D01*
X1473700Y2624700D01*
X1476900Y2637400D01*
X1473700Y2650100D01*
X1465700Y2660600D01*
X1451200Y2667000D01*
X1436700Y2664900D01*
X1422200Y2656400D01*
G01X2117600Y3603000D02*
X1406400D01*
Y3857000D01*
X2117600D01*
Y3603000D01*
G01X1740600Y4836400D02*
X1731000Y4842800D01*
X1719700Y4847000D01*
X1706900D01*
X1692400Y4840600D01*
X1681100Y4830100D01*
X1673100Y4817400D01*
X1666600Y4796200D01*
X1665000Y4777100D01*
X1668300Y4758100D01*
X1673100Y4745400D01*
X1682700Y4732700D01*
X1694000Y4724200D01*
X1705200Y4720000D01*
X1716500D01*
X1727800Y4724200D01*
X1737400Y4730600D01*
X1745500Y4739000D01*
G01X1834700Y4720000D02*
Y4847000D01*
X1815400Y4821600D01*
G01Y4720000D02*
X1854000D01*
G01X1687000Y4560000D02*
G03I-254000J0D01*
G01X2141100Y3830000D02*
Y3908700D01*
X2165500D01*
X2173300Y3904800D01*
X2178100Y3899500D01*
X2180100Y3889000D01*
X2178100Y3878500D01*
X2172300Y3872000D01*
X2165500Y3868000D01*
X2141100D01*
G01X2165500D02*
X2180100Y3830000D01*
G01X2239300D02*
Y3908700D01*
X2227600Y3893000D01*
G01Y3830000D02*
X2251000D01*
G01X2387600Y5207000D02*
X2540000D01*
X2603500Y5143500D01*
X2730500D01*
X2794000Y5207000D01*
X2946400D01*
Y4191000D01*
X2387600D01*
Y5207000D01*
G01X2292400Y5847000D02*
X3003600D01*
Y5593000D01*
X2292400D01*
Y5847000D01*
G01X3365500Y4064000D02*
X4000500D01*
Y3556000D01*
X3365500D01*
Y4064000D01*
G01X2979900Y4987000D02*
Y4896000D01*
X2986300Y4876900D01*
X2999200Y4864200D01*
X3015200Y4860000D01*
X3031300Y4864200D01*
X3044200Y4876900D01*
X3050600Y4896000D01*
Y4987000D01*
G01X3144700Y4860000D02*
Y4987000D01*
X3125400Y4961600D01*
G01Y4860000D02*
X3164000D01*
G01X3071100Y5760000D02*
Y5838700D01*
X3095500D01*
X3103300Y5834800D01*
X3108100Y5829500D01*
X3110100Y5819000D01*
X3108100Y5808500D01*
X3102300Y5802000D01*
X3095500Y5798000D01*
X3071100D01*
G01X3095500D02*
X3110100Y5760000D01*
G01X3147900Y5775700D02*
X3153700Y5766600D01*
X3161500Y5761300D01*
X3170300Y5760000D01*
X3178100Y5761300D01*
X3185800Y5767900D01*
X3190700Y5775700D01*
X3191700Y5783600D01*
X3189700Y5792800D01*
X3182900Y5799300D01*
X3176100Y5802000D01*
X3167400D01*
G01X3176100D02*
X3182000Y5805900D01*
X3186800Y5812500D01*
X3188800Y5820300D01*
X3186800Y5828200D01*
X3182000Y5834800D01*
X3173200Y5838700D01*
X3164400Y5837400D01*
X3155700Y5832100D01*
G01X3819000Y1650500D02*
Y1514000D01*
X3828400Y1485400D01*
X3847400Y1466300D01*
X3871100Y1460000D01*
X3894800Y1466300D01*
X3913800Y1485400D01*
X3923200Y1514000D01*
Y1650500D01*
G01X4090000Y1460000D02*
Y1650500D01*
X4002300Y1514000D01*
X4120900D01*
G01X3819000Y2530500D02*
Y2394000D01*
X3828400Y2365400D01*
X3847400Y2346300D01*
X3871100Y2340000D01*
X3894800Y2346300D01*
X3913800Y2365400D01*
X3923200Y2394000D01*
Y2530500D01*
G01X4009500Y2378100D02*
X4023700Y2355900D01*
X4042600Y2343200D01*
X4064000Y2340000D01*
X4082900Y2343200D01*
X4101900Y2359000D01*
X4113700Y2378100D01*
X4116100Y2397100D01*
X4111400Y2419400D01*
X4094800Y2435200D01*
X4078200Y2441600D01*
X4056900D01*
G01X4078200D02*
X4092400Y2451100D01*
X4104300Y2467000D01*
X4109000Y2486000D01*
X4104300Y2505100D01*
X4092400Y2521000D01*
X4071100Y2530500D01*
X4049800Y2527300D01*
X4028400Y2514600D01*
G01X4063100Y3950000D02*
Y4077000D01*
X4103300D01*
X4116200Y4070600D01*
X4124200Y4062200D01*
X4127400Y4045200D01*
X4124200Y4028300D01*
X4114600Y4017700D01*
X4103300Y4011400D01*
X4063100D01*
G01X4103300D02*
X4127400Y3950000D01*
G01X4244100D02*
Y4077000D01*
X4184500Y3986000D01*
X4265000D01*
G01X3633000Y4862400D02*
Y5573600D01*
X3887000D01*
Y4862400D01*
X3633000D01*
G01X3909400Y5332300D02*
Y5411000D01*
X3933800D01*
X3941600Y5407100D01*
X3946400Y5401800D01*
X3948400Y5391300D01*
X3946400Y5380800D01*
X3940600Y5374300D01*
X3933800Y5370300D01*
X3909400D01*
G01X3933800D02*
X3948400Y5332300D01*
G01X3989100Y5397900D02*
X3994900Y5405800D01*
X4001800Y5409700D01*
X4009500Y5411000D01*
X4019300Y5408400D01*
X4026100Y5401800D01*
X4028000Y5393900D01*
X4027100Y5386100D01*
X4023200Y5379500D01*
X4003700Y5366400D01*
X3994900Y5357200D01*
X3989100Y5344100D01*
X3987200Y5332300D01*
X4028000D01*
G01X4529400Y3292300D02*
Y3371000D01*
X4553800D01*
X4561600Y3367100D01*
X4566400Y3361800D01*
X4568400Y3351300D01*
X4566400Y3340800D01*
X4560600Y3334300D01*
X4553800Y3330300D01*
X4529400D01*
G01X4553800D02*
X4568400Y3292300D01*
G01X4609100Y3325100D02*
X4615900Y3334300D01*
X4621800Y3339500D01*
X4629500Y3342100D01*
X4636400Y3339500D01*
X4641200Y3334300D01*
X4645100Y3326400D01*
X4646100Y3317200D01*
X4645100Y3309400D01*
X4641200Y3301500D01*
X4635400Y3294900D01*
X4628600Y3292300D01*
X4620800Y3294900D01*
X4614000Y3302800D01*
X4610100Y3314600D01*
X4609100Y3327700D01*
X4611100Y3344800D01*
X4614000Y3353900D01*
X4618800Y3363100D01*
X4625700Y3369700D01*
X4632500Y3371000D01*
X4639300Y3368400D01*
X4644100Y3361800D01*
G01X4253000Y2822400D02*
Y3533600D01*
X4507000D01*
Y2822400D01*
X4253000D01*
G01X4701600Y5157000D02*
X4854000D01*
X4917500Y5093500D01*
X5044500D01*
X5108000Y5157000D01*
X5260400D01*
Y4141000D01*
X4701600D01*
Y5157000D01*
G01X4712400Y5827000D02*
X5423600D01*
Y5573000D01*
X4712400D01*
Y5827000D01*
G01X5524000Y1307000D02*
G03I-254000J0D01*
G01X5620600Y1536400D02*
X5611000Y1542800D01*
X5599700Y1547000D01*
X5586900D01*
X5572400Y1540600D01*
X5561100Y1530100D01*
X5553100Y1517400D01*
X5546600Y1496200D01*
X5545000Y1477100D01*
X5548300Y1458100D01*
X5553100Y1445400D01*
X5562700Y1432700D01*
X5574000Y1424200D01*
X5585200Y1420000D01*
X5596500D01*
X5607800Y1424200D01*
X5617400Y1430600D01*
X5625500Y1439000D01*
G01X5684200Y1472900D02*
X5695400Y1487700D01*
X5705100Y1496200D01*
X5718000Y1500400D01*
X5729200Y1496200D01*
X5737300Y1487700D01*
X5743700Y1475000D01*
X5745300Y1460200D01*
X5743700Y1447500D01*
X5737300Y1434800D01*
X5727600Y1424200D01*
X5716400Y1420000D01*
X5703500Y1424200D01*
X5692200Y1436900D01*
X5685800Y1456000D01*
X5684200Y1477100D01*
X5687400Y1504700D01*
X5692200Y1519500D01*
X5700300Y1534300D01*
X5711500Y1544900D01*
X5722800Y1547000D01*
X5734100Y1542800D01*
X5742100Y1532200D01*
G01X5670600Y2556400D02*
X5661000Y2562800D01*
X5649700Y2567000D01*
X5636900D01*
X5622400Y2560600D01*
X5611100Y2550100D01*
X5603100Y2537400D01*
X5596600Y2516200D01*
X5595000Y2497100D01*
X5598300Y2478100D01*
X5603100Y2465400D01*
X5612700Y2452700D01*
X5624000Y2444200D01*
X5635200Y2440000D01*
X5646500D01*
X5657800Y2444200D01*
X5667400Y2450600D01*
X5675500Y2459000D01*
G01X5729400D02*
X5739000Y2448500D01*
X5750300Y2442100D01*
X5764700Y2440000D01*
X5779200Y2444200D01*
X5790500Y2452700D01*
X5798500Y2467500D01*
X5800100Y2484400D01*
X5796900Y2501400D01*
X5788900Y2512000D01*
X5777600Y2520400D01*
X5766400Y2522500D01*
X5755100Y2520400D01*
X5740600Y2512000D01*
X5745400Y2567000D01*
X5788900D01*
G01X5534000Y2377000D02*
G03I-254000J0D01*
G01X5339900Y5087000D02*
Y4996000D01*
X5346300Y4976900D01*
X5359200Y4964200D01*
X5375200Y4960000D01*
X5391300Y4964200D01*
X5404200Y4976900D01*
X5410600Y4996000D01*
Y5087000D01*
G01X5474200Y5065800D02*
X5483800Y5078500D01*
X5495100Y5084900D01*
X5508000Y5087000D01*
X5524100Y5082800D01*
X5535300Y5072200D01*
X5538500Y5059500D01*
X5536900Y5046800D01*
X5530500Y5036200D01*
X5498300Y5015000D01*
X5483800Y5000200D01*
X5474200Y4979000D01*
X5471000Y4960000D01*
X5538500D01*
G01X5481100Y5760000D02*
Y5838700D01*
X5505500D01*
X5513300Y5834800D01*
X5518100Y5829500D01*
X5520100Y5819000D01*
X5518100Y5808500D01*
X5512300Y5802000D01*
X5505500Y5798000D01*
X5481100D01*
G01X5505500D02*
X5520100Y5760000D01*
G01X5557900Y5771800D02*
X5563700Y5765200D01*
X5570500Y5761300D01*
X5579300Y5760000D01*
X5588100Y5762600D01*
X5594900Y5767900D01*
X5599700Y5777100D01*
X5600700Y5787500D01*
X5598800Y5798000D01*
X5593900Y5804600D01*
X5587100Y5809800D01*
X5580300Y5811200D01*
X5573500Y5809800D01*
X5564700Y5804600D01*
X5567600Y5838700D01*
X5593900D01*
G01X5620200Y8250000D02*
X10000000D01*
G01X6151600Y3927000D02*
X6304000D01*
X6367500Y3863500D01*
X6494500D01*
X6558000Y3927000D01*
X6710400D01*
Y2911000D01*
X6151600D01*
Y3927000D01*
G01X6971800Y1860000D02*
Y1938700D01*
X6996200D01*
X7004000Y1934800D01*
X7008800Y1929500D01*
X7010800Y1919000D01*
X7008800Y1908500D01*
X7003000Y1902000D01*
X6996200Y1898000D01*
X6971800D01*
G01X6996200D02*
X7010800Y1860000D01*
G01X7070000D02*
Y1938700D01*
X7058300Y1923000D01*
G01Y1860000D02*
X7081700D01*
G01X7148700Y1938700D02*
X7140900Y1936100D01*
X7135100Y1929500D01*
X7131200Y1921600D01*
X7128300Y1911200D01*
X7127300Y1899300D01*
X7128300Y1887500D01*
X7131200Y1877100D01*
X7135100Y1869200D01*
X7140900Y1862600D01*
X7148700Y1860000D01*
X7156500Y1862600D01*
X7162300Y1869200D01*
X7166200Y1877100D01*
X7169100Y1887500D01*
X7170100Y1899300D01*
X7169100Y1911200D01*
X7166200Y1921600D01*
X7162300Y1929500D01*
X7156500Y1936100D01*
X7148700Y1938700D01*
G01X6667500Y1295400D02*
Y2006600D01*
X6921500D01*
Y1295400D01*
X6667500D01*
G01X6769900Y3777000D02*
Y3686000D01*
X6776300Y3666900D01*
X6789200Y3654200D01*
X6805200Y3650000D01*
X6821300Y3654200D01*
X6834200Y3666900D01*
X6840600Y3686000D01*
Y3777000D01*
G01X6899400Y3669000D02*
X6909000Y3658500D01*
X6920300Y3652100D01*
X6934700Y3650000D01*
X6949200Y3654200D01*
X6960500Y3662700D01*
X6968500Y3677500D01*
X6970100Y3694400D01*
X6966900Y3711400D01*
X6958900Y3722000D01*
X6947600Y3730400D01*
X6936400Y3732500D01*
X6925100Y3730400D01*
X6910600Y3722000D01*
X6915400Y3777000D01*
X6958900D01*
G01X7383000Y3132400D02*
Y3843600D01*
X7637000D01*
Y3132400D01*
X7383000D01*
G01X7711100Y3640000D02*
Y3718700D01*
X7735500D01*
X7743300Y3714800D01*
X7748100Y3709500D01*
X7750100Y3699000D01*
X7748100Y3688500D01*
X7742300Y3682000D01*
X7735500Y3678000D01*
X7711100D01*
G01X7735500D02*
X7750100Y3640000D01*
G01X7807400D02*
X7809300Y3657100D01*
X7812200Y3671500D01*
X7816100Y3684600D01*
X7821000Y3699000D01*
X7828800Y3718700D01*
X7789800D01*
G01X8010600Y5786400D02*
X8001000Y5792800D01*
X7989700Y5797000D01*
X7976900D01*
X7962400Y5790600D01*
X7951100Y5780100D01*
X7943100Y5767400D01*
X7936600Y5746200D01*
X7935000Y5727100D01*
X7938300Y5708100D01*
X7943100Y5695400D01*
X7952700Y5682700D01*
X7964000Y5674200D01*
X7975200Y5670000D01*
X7986500D01*
X7997800Y5674200D01*
X8007400Y5680600D01*
X8015500Y5689000D01*
G01X8074200Y5775800D02*
X8083800Y5788500D01*
X8095100Y5794900D01*
X8108000Y5797000D01*
X8124100Y5792800D01*
X8135300Y5782200D01*
X8138500Y5769500D01*
X8136900Y5756800D01*
X8130500Y5746200D01*
X8098300Y5725000D01*
X8083800Y5710200D01*
X8074200Y5689000D01*
X8071000Y5670000D01*
X8138500D01*
G01X7884000Y5517000D02*
G03I-254000J0D01*
G01X8501800Y1860000D02*
Y1938700D01*
X8526200D01*
X8534000Y1934800D01*
X8538800Y1929500D01*
X8540800Y1919000D01*
X8538800Y1908500D01*
X8533000Y1902000D01*
X8526200Y1898000D01*
X8501800D01*
G01X8526200D02*
X8540800Y1860000D01*
G01X8600000D02*
Y1938700D01*
X8588300Y1923000D01*
G01Y1860000D02*
X8611700D01*
G01X8678700D02*
Y1938700D01*
X8667000Y1923000D01*
G01Y1860000D02*
X8690400D01*
G01X8445500Y2006600D02*
Y1295400D01*
X8191500D01*
Y2006600D01*
X8445500D01*
G01X8271600Y3917000D02*
X8424000D01*
X8487500Y3853500D01*
X8614500D01*
X8678000Y3917000D01*
X8830400D01*
Y2901000D01*
X8271600D01*
Y3917000D01*
G01X8445500Y5308600D02*
Y4597400D01*
X8191500D01*
Y5308600D01*
X8445500D01*
G01X8501100Y5130000D02*
Y5208700D01*
X8525500D01*
X8533300Y5204800D01*
X8538100Y5199500D01*
X8540100Y5189000D01*
X8538100Y5178500D01*
X8532300Y5172000D01*
X8525500Y5168000D01*
X8501100D01*
G01X8525500D02*
X8540100Y5130000D01*
G01X8599300D02*
X8606100Y5131300D01*
X8613900Y5135200D01*
X8618800Y5141800D01*
X8620700Y5151000D01*
X8618800Y5160200D01*
X8612900Y5168000D01*
X8604200Y5172000D01*
X8594400D01*
X8588600Y5174600D01*
X8583700Y5181200D01*
X8581800Y5190300D01*
X8584700Y5199500D01*
X8591500Y5206100D01*
X8599300Y5208700D01*
X8607100Y5206100D01*
X8613900Y5199500D01*
X8616800Y5190300D01*
X8614900Y5181200D01*
X8610000Y5174600D01*
X8604200Y5172000D01*
X8594400D01*
X8585700Y5168000D01*
X8579800Y5160200D01*
X8577900Y5151000D01*
X8579800Y5141800D01*
X8584700Y5135200D01*
X8592500Y5131300D01*
X8599300Y5130000D01*
G01X9627000Y3373000D02*
X9373000D01*
Y3881000D01*
X9627000D01*
Y3373000D01*
G01X8899900Y3777000D02*
Y3686000D01*
X8906300Y3666900D01*
X8919200Y3654200D01*
X8935200Y3650000D01*
X8951300Y3654200D01*
X8964200Y3666900D01*
X8970600Y3686000D01*
Y3777000D01*
G01X9034200Y3702900D02*
X9045400Y3717700D01*
X9055100Y3726200D01*
X9068000Y3730400D01*
X9079200Y3726200D01*
X9087300Y3717700D01*
X9093700Y3705000D01*
X9095300Y3690200D01*
X9093700Y3677500D01*
X9087300Y3664800D01*
X9077600Y3654200D01*
X9066400Y3650000D01*
X9053500Y3654200D01*
X9042200Y3666900D01*
X9035800Y3686000D01*
X9034200Y3707100D01*
X9037400Y3734700D01*
X9042200Y3749500D01*
X9050300Y3764300D01*
X9061500Y3774900D01*
X9072800Y3777000D01*
X9084100Y3772800D01*
X9092100Y3762200D01*
G01X9080500Y5308600D02*
Y4597400D01*
X8826500D01*
Y5308600D01*
X9080500D01*
G01X9151100Y5140000D02*
Y5218700D01*
X9175500D01*
X9183300Y5214800D01*
X9188100Y5209500D01*
X9190100Y5199000D01*
X9188100Y5188500D01*
X9182300Y5182000D01*
X9175500Y5178000D01*
X9151100D01*
G01X9175500D02*
X9190100Y5140000D01*
G01X9232800Y5149200D02*
X9239600Y5142600D01*
X9247400Y5140000D01*
X9255100Y5142600D01*
X9262000Y5150500D01*
X9266800Y5162300D01*
X9268800Y5174100D01*
Y5188500D01*
X9266800Y5200300D01*
X9262000Y5210800D01*
X9256100Y5216100D01*
X9249300Y5218700D01*
X9241500Y5216100D01*
X9235700Y5210800D01*
X9231800Y5203000D01*
X9229800Y5192500D01*
X9231800Y5183300D01*
X9236600Y5174100D01*
X9242500Y5168900D01*
X9249300Y5167500D01*
X9257100Y5170200D01*
X9262900Y5176700D01*
X9268800Y5188500D01*
G01X9661100Y3735700D02*
X9666000Y3727900D01*
X9671800Y3722600D01*
X9678700Y3720000D01*
X9686400Y3722600D01*
X9692300Y3727900D01*
X9698100Y3735700D01*
X9700100Y3746200D01*
Y3798700D01*
G01X9740800Y3785600D02*
X9746600Y3793500D01*
X9753500Y3797400D01*
X9761200Y3798700D01*
X9771000Y3796100D01*
X9777800Y3789500D01*
X9779700Y3781600D01*
X9778800Y3773800D01*
X9774900Y3767200D01*
X9755400Y3754100D01*
X9746600Y3744900D01*
X9740800Y3731800D01*
X9738900Y3720000D01*
X9779700D01*
G01X10000000Y7250000D02*
Y8500000D01*
G01X9600000Y8187500D02*
X10000000Y8250000D01*
X9600000Y8312500D01*
Y8187500D01*
G01X10250000Y0D02*
X11680000D01*
G01X10250000Y7000000D02*
X11680000D01*
G01X11430000Y3215000D02*
Y0D01*
G01X11367500Y400000D02*
X11430000Y0D01*
X11492500Y400000D01*
X11367500D01*
G01X11430000Y4265000D02*
Y7000000D01*
G01X11492500Y6600000D02*
X11430000Y7000000D01*
X11367500Y6600000D01*
X11492500D01*
M02*
