G04 ================== begin FILE IDENTIFICATION RECORD ==================*
G04 Layout Name:  C:/USERS/USER/DESKTOP/DA CONVERTOR/allegro/OSCILLATOR.brd*
G04 Film Name:    SolderB*
G04 File Format:  Gerber RS274X*
G04 File Origin:  Cadence Allegro 17.2-P019*
G04 Origin Date:  Thu Aug 01 11:09:31 2019*
G04 *
G04 Layer:  VIA CLASS/SOLDERMASK_BOTTOM*
G04 Layer:  PIN/SOLDERMASK_BOTTOM*
G04 Layer:  PACKAGE GEOMETRY/SOLDERMASK_TOP*
G04 Layer:  BOARD GEOMETRY/SOLDERMASK_BOTTOM*
G04 *
G04 Offset:    (0.000 0.000)*
G04 Mirror:    No*
G04 Mode:      Positive*
G04 Rotation:  0*
G04 FullContactRelief:  No*
G04 UndefLineWidth:     0.000*
G04 ================== end FILE IDENTIFICATION RECORD ====================*
%FSLAX25Y25*MOMM*%
%IR0*IPPOS*OFA0.00000B0.00000*MIA0B0*SFA1.00000B1.00000*%
%ADD12C,2.032*%
%ADD11C,1.905*%
%ADD10C,3.683*%
%ADD13R,1.905X1.905*%
%LPD*%
G75*
G54D10*
X500000Y500000D03*
Y6500000D03*
X9500000Y500000D03*
Y6500000D03*
G54D11*
X952500Y1206500D03*
Y1460500D03*
X1016000Y2540000D03*
Y2286000D03*
X500000Y3492000D03*
Y3746000D03*
Y4000000D03*
X1306000Y4560000D03*
X1560000D03*
X2286000Y4318000D03*
Y4572000D03*
Y4826000D03*
X3214000Y1420000D03*
X3468000D03*
X3194000Y2310000D03*
X3448000D03*
X3429000Y3683000D03*
X3048000Y4318000D03*
Y4572000D03*
Y4826000D03*
Y5080000D03*
X3683000Y3937000D03*
X3937000Y3683000D03*
X4600000Y4268000D03*
Y4522000D03*
Y4776000D03*
X5270000Y1180000D03*
Y1434000D03*
X5280000Y2504000D03*
Y2250000D03*
X5362000Y4268000D03*
Y4522000D03*
Y4776000D03*
Y5030000D03*
X6050000Y3038000D03*
Y3292000D03*
Y3546000D03*
X6812000Y3038000D03*
Y3292000D03*
Y3546000D03*
Y3800000D03*
X7630000Y5644000D03*
Y5390000D03*
X8170000Y3028000D03*
Y3282000D03*
Y3536000D03*
X8932000Y3028000D03*
Y3282000D03*
Y3536000D03*
Y3790000D03*
X9500000Y3754000D03*
Y3500000D03*
G54D12*
X1254000Y3730000D03*
X2270000D03*
X2140000Y5720000D03*
X3156000D03*
X3760000Y4710000D03*
Y5726000D03*
X4380000Y2670000D03*
Y3686000D03*
X4560000Y5700000D03*
X5576000D03*
X6794500Y1143000D03*
Y2159000D03*
X7510000Y2980000D03*
Y3996000D03*
X8318500Y1143000D03*
Y2159000D03*
Y4445000D03*
Y5461000D03*
X8953500Y4445000D03*
Y5461000D03*
G54D13*
X2286000Y5080000D03*
X2960000Y1420000D03*
X2940000Y2310000D03*
X4600000Y5030000D03*
X6050000Y3800000D03*
X8170000Y3790000D03*
M02*
